<mxfile host="Electron" modified="2023-10-13T13:35:15.374Z" agent="Mozilla/5.0 (Windows NT 10.0; Win64; x64) AppleWebKit/537.36 (KHTML, like Gecko) draw.io/22.0.2 Chrome/114.0.5735.289 Electron/25.8.4 Safari/537.36" etag="0fNM7KeQYU5apIR8EYwm" version="22.0.2" type="device">
  <diagram name="Page-1" id="PbdG35wLBT9UedqeZ_M-">
    <mxGraphModel dx="1864" dy="2032" grid="0" gridSize="10" guides="1" tooltips="1" connect="1" arrows="1" fold="1" page="1" pageScale="1" pageWidth="950" pageHeight="850" background="#ffffff" math="0" shadow="0">
      <root>
        <mxCell id="0" />
        <mxCell id="1" parent="0" />
        <mxCell id="zHQZl-b4aj-9DkF3UtBk-159" value="" style="rounded=0;whiteSpace=wrap;html=1;fillColor=none;dashed=1;strokeColor=#1A1A1A;" parent="1" vertex="1">
          <mxGeometry x="30.5" y="693" width="778.5" height="139" as="geometry" />
        </mxCell>
        <mxCell id="zHQZl-b4aj-9DkF3UtBk-165" value="" style="endArrow=none;dashed=1;html=1;rounded=0;entryX=0.902;entryY=-0.057;entryDx=0;entryDy=0;entryPerimeter=0;fillColor=#e51400;strokeColor=#B20000;strokeWidth=2;" parent="1" edge="1">
          <mxGeometry width="50" height="50" relative="1" as="geometry">
            <mxPoint x="305" y="680.71" as="sourcePoint" />
            <mxPoint x="305.34850000000006" y="14.999999999999964" as="targetPoint" />
          </mxGeometry>
        </mxCell>
        <mxCell id="zHQZl-b4aj-9DkF3UtBk-166" value="" style="endArrow=none;dashed=1;html=1;rounded=0;entryX=0.902;entryY=-0.057;entryDx=0;entryDy=0;entryPerimeter=0;fillColor=#e51400;strokeColor=#B20000;strokeWidth=2;" parent="1" edge="1">
          <mxGeometry width="50" height="50" relative="1" as="geometry">
            <mxPoint x="417.81" y="684" as="sourcePoint" />
            <mxPoint x="418.15850000000006" y="18.289999999999885" as="targetPoint" />
          </mxGeometry>
        </mxCell>
        <mxCell id="zHQZl-b4aj-9DkF3UtBk-1" value="" style="rounded=0;whiteSpace=wrap;html=1;fillColor=#6d8764;strokeColor=#000000;fontColor=#ffffff;" parent="1" vertex="1">
          <mxGeometry x="32" y="45" width="31" height="200" as="geometry" />
        </mxCell>
        <mxCell id="zHQZl-b4aj-9DkF3UtBk-2" value="" style="rounded=0;whiteSpace=wrap;html=1;fillColor=#647687;strokeColor=#000000;fontColor=#ffffff;" parent="1" vertex="1">
          <mxGeometry x="63" y="45" width="31" height="200" as="geometry" />
        </mxCell>
        <mxCell id="zHQZl-b4aj-9DkF3UtBk-73" style="edgeStyle=orthogonalEdgeStyle;rounded=0;orthogonalLoop=1;jettySize=auto;html=1;exitX=0.5;exitY=1;exitDx=0;exitDy=0;entryX=0.5;entryY=0;entryDx=0;entryDy=0;fillColor=#fa6800;strokeColor=#C73500;" parent="1" source="zHQZl-b4aj-9DkF3UtBk-3" target="zHQZl-b4aj-9DkF3UtBk-9" edge="1">
          <mxGeometry relative="1" as="geometry" />
        </mxCell>
        <mxCell id="zHQZl-b4aj-9DkF3UtBk-116" style="edgeStyle=orthogonalEdgeStyle;rounded=0;orthogonalLoop=1;jettySize=auto;html=1;exitX=1;exitY=0.5;exitDx=0;exitDy=0;entryX=0;entryY=0.5;entryDx=0;entryDy=0;strokeColor=#808080;" parent="1" source="zHQZl-b4aj-9DkF3UtBk-3" target="zHQZl-b4aj-9DkF3UtBk-104" edge="1">
          <mxGeometry relative="1" as="geometry" />
        </mxCell>
        <mxCell id="zHQZl-b4aj-9DkF3UtBk-3" value="" style="rounded=0;whiteSpace=wrap;html=1;fillColor=#647687;strokeColor=#000000;fontColor=#ffffff;" parent="1" vertex="1">
          <mxGeometry x="94" y="45" width="31" height="200" as="geometry" />
        </mxCell>
        <mxCell id="zHQZl-b4aj-9DkF3UtBk-17" value="" style="rounded=0;whiteSpace=wrap;html=1;fillColor=#76608a;strokeColor=#000000;fontColor=#ffffff;" parent="1" vertex="1">
          <mxGeometry x="860" y="45" width="31" height="200" as="geometry" />
        </mxCell>
        <mxCell id="zHQZl-b4aj-9DkF3UtBk-19" value="" style="rounded=0;whiteSpace=wrap;html=1;fillColor=#647687;strokeColor=#000000;fontColor=#ffffff;" parent="1" vertex="1">
          <mxGeometry x="798" y="45" width="31" height="200" as="geometry" />
        </mxCell>
        <mxCell id="zHQZl-b4aj-9DkF3UtBk-20" value="" style="rounded=0;whiteSpace=wrap;html=1;fillColor=#647687;strokeColor=#000000;fontColor=#ffffff;" parent="1" vertex="1">
          <mxGeometry x="829" y="45" width="31" height="200" as="geometry" />
        </mxCell>
        <mxCell id="zHQZl-b4aj-9DkF3UtBk-9" value="" style="rounded=0;whiteSpace=wrap;html=1;fillColor=#647687;strokeColor=#000000;fontColor=#ffffff;" parent="1" vertex="1">
          <mxGeometry x="94" y="285" width="31" height="100" as="geometry" />
        </mxCell>
        <mxCell id="zHQZl-b4aj-9DkF3UtBk-72" style="edgeStyle=orthogonalEdgeStyle;rounded=0;orthogonalLoop=1;jettySize=auto;html=1;exitX=0.5;exitY=1;exitDx=0;exitDy=0;entryX=0.5;entryY=0;entryDx=0;entryDy=0;fillColor=#fa6800;strokeColor=#C73500;" parent="1" source="zHQZl-b4aj-9DkF3UtBk-10" target="zHQZl-b4aj-9DkF3UtBk-11" edge="1">
          <mxGeometry relative="1" as="geometry" />
        </mxCell>
        <mxCell id="zHQZl-b4aj-9DkF3UtBk-117" style="edgeStyle=orthogonalEdgeStyle;rounded=0;orthogonalLoop=1;jettySize=auto;html=1;exitX=1;exitY=0.5;exitDx=0;exitDy=0;entryX=0;entryY=0.5;entryDx=0;entryDy=0;strokeColor=#808080;" parent="1" source="zHQZl-b4aj-9DkF3UtBk-10" target="zHQZl-b4aj-9DkF3UtBk-102" edge="1">
          <mxGeometry relative="1" as="geometry" />
        </mxCell>
        <mxCell id="zHQZl-b4aj-9DkF3UtBk-10" value="" style="rounded=0;whiteSpace=wrap;html=1;fillColor=#647687;strokeColor=#000000;fontColor=#ffffff;" parent="1" vertex="1">
          <mxGeometry x="125" y="285" width="31" height="100" as="geometry" />
        </mxCell>
        <mxCell id="zHQZl-b4aj-9DkF3UtBk-21" value="" style="rounded=0;whiteSpace=wrap;html=1;fillColor=#647687;strokeColor=#000000;fontColor=#ffffff;" parent="1" vertex="1">
          <mxGeometry x="736" y="285" width="31" height="100" as="geometry" />
        </mxCell>
        <mxCell id="zHQZl-b4aj-9DkF3UtBk-79" style="edgeStyle=orthogonalEdgeStyle;rounded=0;orthogonalLoop=1;jettySize=auto;html=1;exitX=0.5;exitY=0;exitDx=0;exitDy=0;entryX=0.5;entryY=1;entryDx=0;entryDy=0;fillColor=#e3c800;strokeColor=#B09500;" parent="1" source="zHQZl-b4aj-9DkF3UtBk-22" target="zHQZl-b4aj-9DkF3UtBk-104" edge="1">
          <mxGeometry relative="1" as="geometry" />
        </mxCell>
        <mxCell id="zHQZl-b4aj-9DkF3UtBk-22" value="" style="rounded=0;whiteSpace=wrap;html=1;fillColor=#647687;strokeColor=#000000;fontColor=#ffffff;" parent="1" vertex="1">
          <mxGeometry x="767" y="285" width="31" height="100" as="geometry" />
        </mxCell>
        <mxCell id="zHQZl-b4aj-9DkF3UtBk-11" value="" style="rounded=0;whiteSpace=wrap;html=1;fillColor=#647687;strokeColor=#000000;fontColor=#ffffff;" parent="1" vertex="1">
          <mxGeometry x="125" y="440" width="31" height="50" as="geometry" />
        </mxCell>
        <mxCell id="zHQZl-b4aj-9DkF3UtBk-71" style="edgeStyle=orthogonalEdgeStyle;rounded=0;orthogonalLoop=1;jettySize=auto;html=1;exitX=0.5;exitY=1;exitDx=0;exitDy=0;entryX=0.5;entryY=0;entryDx=0;entryDy=0;fillColor=#fa6800;strokeColor=#C73500;" parent="1" source="zHQZl-b4aj-9DkF3UtBk-12" target="zHQZl-b4aj-9DkF3UtBk-13" edge="1">
          <mxGeometry relative="1" as="geometry" />
        </mxCell>
        <mxCell id="zHQZl-b4aj-9DkF3UtBk-12" value="" style="rounded=0;whiteSpace=wrap;html=1;fillColor=#647687;strokeColor=#000000;fontColor=#ffffff;" parent="1" vertex="1">
          <mxGeometry x="156" y="440" width="31" height="50" as="geometry" />
        </mxCell>
        <mxCell id="zHQZl-b4aj-9DkF3UtBk-23" value="" style="rounded=0;whiteSpace=wrap;html=1;fillColor=#647687;strokeColor=#000000;fontColor=#ffffff;" parent="1" vertex="1">
          <mxGeometry x="692" y="436" width="31" height="50" as="geometry" />
        </mxCell>
        <mxCell id="zHQZl-b4aj-9DkF3UtBk-77" style="edgeStyle=orthogonalEdgeStyle;rounded=0;orthogonalLoop=1;jettySize=auto;html=1;exitX=0.5;exitY=0;exitDx=0;exitDy=0;entryX=0.5;entryY=1;entryDx=0;entryDy=0;fillColor=#e3c800;strokeColor=#B09500;" parent="1" source="zHQZl-b4aj-9DkF3UtBk-24" target="zHQZl-b4aj-9DkF3UtBk-102" edge="1">
          <mxGeometry relative="1" as="geometry" />
        </mxCell>
        <mxCell id="zHQZl-b4aj-9DkF3UtBk-24" value="" style="rounded=0;whiteSpace=wrap;html=1;fillColor=#647687;strokeColor=#000000;fontColor=#ffffff;" parent="1" vertex="1">
          <mxGeometry x="723" y="436" width="31" height="50" as="geometry" />
        </mxCell>
        <mxCell id="zHQZl-b4aj-9DkF3UtBk-13" value="" style="rounded=0;whiteSpace=wrap;html=1;fillColor=#647687;strokeColor=#000000;fontColor=#ffffff;" parent="1" vertex="1">
          <mxGeometry x="156" y="548" width="31" height="25" as="geometry" />
        </mxCell>
        <mxCell id="zHQZl-b4aj-9DkF3UtBk-66" style="edgeStyle=orthogonalEdgeStyle;rounded=0;orthogonalLoop=1;jettySize=auto;html=1;exitX=0.5;exitY=1;exitDx=0;exitDy=0;fillColor=#fa6800;strokeColor=#C73500;entryX=0;entryY=0.5;entryDx=0;entryDy=0;" parent="1" source="zHQZl-b4aj-9DkF3UtBk-14" target="zHQZl-b4aj-9DkF3UtBk-15" edge="1">
          <mxGeometry relative="1" as="geometry">
            <mxPoint x="253" y="627.25" as="targetPoint" />
          </mxGeometry>
        </mxCell>
        <mxCell id="zHQZl-b4aj-9DkF3UtBk-119" style="edgeStyle=orthogonalEdgeStyle;rounded=0;orthogonalLoop=1;jettySize=auto;html=1;exitX=1;exitY=0.5;exitDx=0;exitDy=0;entryX=0;entryY=0.5;entryDx=0;entryDy=0;strokeColor=#808080;" parent="1" source="zHQZl-b4aj-9DkF3UtBk-14" target="zHQZl-b4aj-9DkF3UtBk-99" edge="1">
          <mxGeometry relative="1" as="geometry">
            <mxPoint x="236" y="560.5" as="sourcePoint" />
          </mxGeometry>
        </mxCell>
        <mxCell id="zHQZl-b4aj-9DkF3UtBk-14" value="" style="rounded=0;whiteSpace=wrap;html=1;fillColor=#647687;strokeColor=#000000;fontColor=#ffffff;" parent="1" vertex="1">
          <mxGeometry x="187" y="548" width="31" height="25" as="geometry" />
        </mxCell>
        <mxCell id="zHQZl-b4aj-9DkF3UtBk-25" value="" style="rounded=0;whiteSpace=wrap;html=1;fillColor=#647687;strokeColor=#000000;fontColor=#ffffff;" parent="1" vertex="1">
          <mxGeometry x="630" y="548" width="31" height="25" as="geometry" />
        </mxCell>
        <mxCell id="zHQZl-b4aj-9DkF3UtBk-114" style="edgeStyle=orthogonalEdgeStyle;rounded=0;orthogonalLoop=1;jettySize=auto;html=1;exitX=0.5;exitY=0;exitDx=0;exitDy=0;entryX=0.5;entryY=1;entryDx=0;entryDy=0;fillColor=#e3c800;strokeColor=#B09500;" parent="1" source="zHQZl-b4aj-9DkF3UtBk-26" target="zHQZl-b4aj-9DkF3UtBk-101" edge="1">
          <mxGeometry relative="1" as="geometry" />
        </mxCell>
        <mxCell id="zHQZl-b4aj-9DkF3UtBk-26" value="" style="rounded=0;whiteSpace=wrap;html=1;fillColor=#647687;strokeColor=#000000;fontColor=#ffffff;" parent="1" vertex="1">
          <mxGeometry x="661" y="548" width="31" height="25" as="geometry" />
        </mxCell>
        <mxCell id="zHQZl-b4aj-9DkF3UtBk-15" value="" style="rounded=0;whiteSpace=wrap;html=1;fillColor=#647687;strokeColor=#000000;fontColor=#ffffff;" parent="1" vertex="1">
          <mxGeometry x="332" y="621" width="31" height="12.5" as="geometry" />
        </mxCell>
        <mxCell id="zHQZl-b4aj-9DkF3UtBk-64" style="edgeStyle=orthogonalEdgeStyle;rounded=0;orthogonalLoop=1;jettySize=auto;html=1;entryX=0.5;entryY=1;entryDx=0;entryDy=0;fillColor=#e3c800;strokeColor=#B09500;" parent="1" target="zHQZl-b4aj-9DkF3UtBk-99" edge="1">
          <mxGeometry relative="1" as="geometry">
            <mxPoint x="579.3333740234375" y="581.6666259765625" as="targetPoint" />
            <mxPoint x="395" y="628" as="sourcePoint" />
          </mxGeometry>
        </mxCell>
        <mxCell id="zHQZl-b4aj-9DkF3UtBk-16" value="" style="rounded=0;whiteSpace=wrap;html=1;fillColor=#647687;strokeColor=#000000;fontColor=#ffffff;" parent="1" vertex="1">
          <mxGeometry x="363" y="621" width="31" height="12.5" as="geometry" />
        </mxCell>
        <mxCell id="zHQZl-b4aj-9DkF3UtBk-89" value="[nChn, H, W]" style="text;html=1;strokeColor=none;fillColor=none;align=center;verticalAlign=middle;whiteSpace=wrap;rounded=0;fontFamily=Georgia;fontColor=#000000;rotation=-90;" parent="1" vertex="1">
          <mxGeometry x="4" y="136" width="83" height="30" as="geometry" />
        </mxCell>
        <mxCell id="zHQZl-b4aj-9DkF3UtBk-91" value="[encoderChn[1], H, W]" style="text;html=1;strokeColor=none;fillColor=none;align=center;verticalAlign=middle;whiteSpace=wrap;rounded=0;fontFamily=Georgia;fontColor=#000000;rotation=0;" parent="1" vertex="1">
          <mxGeometry x="131" y="75" width="128" height="30" as="geometry" />
        </mxCell>
        <mxCell id="zHQZl-b4aj-9DkF3UtBk-92" value="[encoderChn[1], H/2, W/2]" style="text;html=1;strokeColor=none;fillColor=none;align=center;verticalAlign=middle;whiteSpace=wrap;rounded=0;fontFamily=Georgia;fontColor=#000000;rotation=-90;" parent="1" vertex="1">
          <mxGeometry x="-19" y="320" width="181.5" height="30" as="geometry" />
        </mxCell>
        <mxCell id="zHQZl-b4aj-9DkF3UtBk-93" value="[encoderChn[2], H/2, W/2]" style="text;html=1;strokeColor=none;fillColor=none;align=center;verticalAlign=middle;whiteSpace=wrap;rounded=0;fontFamily=Georgia;fontColor=#000000;rotation=0;" parent="1" vertex="1">
          <mxGeometry x="131" y="251" width="181.5" height="30" as="geometry" />
        </mxCell>
        <mxCell id="zHQZl-b4aj-9DkF3UtBk-94" value="[encoderChn[2], H/4, W/4]" style="text;html=1;strokeColor=none;fillColor=none;align=center;verticalAlign=middle;whiteSpace=wrap;rounded=0;fontFamily=Georgia;fontColor=#000000;rotation=-90;" parent="1" vertex="1">
          <mxGeometry x="14" y="460" width="181.5" height="30" as="geometry" />
        </mxCell>
        <mxCell id="zHQZl-b4aj-9DkF3UtBk-95" value="[encoderChn[3], H/4, W/4]" style="text;html=1;strokeColor=none;fillColor=none;align=center;verticalAlign=middle;whiteSpace=wrap;rounded=0;fontFamily=Georgia;fontColor=#000000;rotation=0;" parent="1" vertex="1">
          <mxGeometry x="150.5" y="410" width="181.5" height="30" as="geometry" />
        </mxCell>
        <mxCell id="zHQZl-b4aj-9DkF3UtBk-96" value="[encoderChn[3], H/8, W/8]" style="text;html=1;strokeColor=none;fillColor=none;align=center;verticalAlign=middle;whiteSpace=wrap;rounded=0;fontFamily=Georgia;fontColor=#000000;rotation=-90;" parent="1" vertex="1">
          <mxGeometry x="46" y="573" width="181.5" height="30" as="geometry" />
        </mxCell>
        <mxCell id="zHQZl-b4aj-9DkF3UtBk-97" value="[encoderChn[4], H/8, W/8]" style="text;html=1;strokeColor=none;fillColor=none;align=center;verticalAlign=middle;whiteSpace=wrap;rounded=0;fontFamily=Georgia;fontColor=#000000;rotation=0;" parent="1" vertex="1">
          <mxGeometry x="170" y="512" width="181.5" height="30" as="geometry" />
        </mxCell>
        <mxCell id="zHQZl-b4aj-9DkF3UtBk-99" value="" style="rounded=0;whiteSpace=wrap;html=1;fillColor=#FFFFFF;strokeColor=#000000;fontColor=#ffffff;" parent="1" vertex="1">
          <mxGeometry x="599" y="548" width="31" height="25" as="geometry" />
        </mxCell>
        <mxCell id="zHQZl-b4aj-9DkF3UtBk-101" value="" style="rounded=0;whiteSpace=wrap;html=1;fillColor=#FFFFFF;strokeColor=#000000;fontColor=#ffffff;" parent="1" vertex="1">
          <mxGeometry x="661" y="436" width="31" height="50" as="geometry" />
        </mxCell>
        <mxCell id="zHQZl-b4aj-9DkF3UtBk-102" value="" style="rounded=0;whiteSpace=wrap;html=1;fillColor=#FFFFFF;strokeColor=#000000;fontColor=#ffffff;" parent="1" vertex="1">
          <mxGeometry x="705" y="285" width="31" height="100" as="geometry" />
        </mxCell>
        <mxCell id="zHQZl-b4aj-9DkF3UtBk-104" value="" style="rounded=0;whiteSpace=wrap;html=1;fillColor=#FFFFFF;strokeColor=#000000;fontColor=#ffffff;" parent="1" vertex="1">
          <mxGeometry x="767" y="45" width="31" height="200" as="geometry" />
        </mxCell>
        <mxCell id="zHQZl-b4aj-9DkF3UtBk-110" value="[encoderChn[4], H/16, W/16]" style="text;html=1;strokeColor=none;fillColor=none;align=center;verticalAlign=middle;whiteSpace=wrap;rounded=0;fontFamily=Georgia;fontColor=#000000;rotation=0;" parent="1" vertex="1">
          <mxGeometry x="170" y="641" width="181.5" height="30" as="geometry" />
        </mxCell>
        <mxCell id="zHQZl-b4aj-9DkF3UtBk-111" value="[botChn, H/16, W/16]" style="text;html=1;strokeColor=none;fillColor=none;align=center;verticalAlign=middle;whiteSpace=wrap;rounded=0;fontFamily=Georgia;fontColor=#000000;rotation=0;" parent="1" vertex="1">
          <mxGeometry x="357.25" y="641" width="181.5" height="30" as="geometry" />
        </mxCell>
        <mxCell id="zHQZl-b4aj-9DkF3UtBk-113" value="" style="rounded=0;whiteSpace=wrap;html=1;fillColor=#e3c800;strokeColor=#000000;fontColor=#000000;" parent="1" vertex="1">
          <mxGeometry x="891" y="45" width="31" height="200" as="geometry" />
        </mxCell>
        <mxCell id="zHQZl-b4aj-9DkF3UtBk-118" style="edgeStyle=orthogonalEdgeStyle;rounded=0;orthogonalLoop=1;jettySize=auto;html=1;exitX=1;exitY=0.5;exitDx=0;exitDy=0;entryX=0.041;entryY=0.581;entryDx=0;entryDy=0;entryPerimeter=0;strokeColor=#808080;" parent="1" source="zHQZl-b4aj-9DkF3UtBk-12" target="zHQZl-b4aj-9DkF3UtBk-101" edge="1">
          <mxGeometry relative="1" as="geometry">
            <mxPoint x="204.99999999999977" y="465" as="sourcePoint" />
          </mxGeometry>
        </mxCell>
        <mxCell id="zHQZl-b4aj-9DkF3UtBk-120" value="[encoderChn[4] + botChn, H/8, W/8]" style="text;html=1;strokeColor=none;fillColor=none;align=center;verticalAlign=middle;whiteSpace=wrap;rounded=0;fontFamily=Georgia;fontColor=#000000;rotation=0;" parent="1" vertex="1">
          <mxGeometry x="439" y="512" width="241" height="30" as="geometry" />
        </mxCell>
        <mxCell id="zHQZl-b4aj-9DkF3UtBk-121" value="[encoderChn[3] + decoderChn[1], H/4, W/4]" style="text;html=1;strokeColor=none;fillColor=none;align=center;verticalAlign=middle;whiteSpace=wrap;rounded=0;fontFamily=Georgia;fontColor=#000000;rotation=0;" parent="1" vertex="1">
          <mxGeometry x="450" y="401" width="285.5" height="30" as="geometry" />
        </mxCell>
        <mxCell id="zHQZl-b4aj-9DkF3UtBk-122" value="[encoderChn[2] + decoderChn [2], H/2, W/2]" style="text;html=1;strokeColor=none;fillColor=none;align=center;verticalAlign=middle;whiteSpace=wrap;rounded=0;fontFamily=Georgia;fontColor=#000000;rotation=0;" parent="1" vertex="1">
          <mxGeometry x="483" y="251" width="289.5" height="30" as="geometry" />
        </mxCell>
        <mxCell id="zHQZl-b4aj-9DkF3UtBk-123" value="[encoderChn[1] + decoderChn[3], H, W]" style="text;html=1;strokeColor=none;fillColor=none;align=center;verticalAlign=middle;whiteSpace=wrap;rounded=0;fontFamily=Georgia;fontColor=#000000;rotation=0;" parent="1" vertex="1">
          <mxGeometry x="511" y="75" width="260.5" height="30" as="geometry" />
        </mxCell>
        <mxCell id="zHQZl-b4aj-9DkF3UtBk-124" value="[decoderChn[1], H/8, W/8]" style="text;html=1;strokeColor=none;fillColor=none;align=center;verticalAlign=middle;whiteSpace=wrap;rounded=0;fontFamily=Georgia;fontColor=#000000;rotation=-90;" parent="1" vertex="1">
          <mxGeometry x="624" y="585" width="181.5" height="30" as="geometry" />
        </mxCell>
        <mxCell id="zHQZl-b4aj-9DkF3UtBk-127" value="[decoderChn[2], H/4, W/4]" style="text;html=1;strokeColor=none;fillColor=none;align=center;verticalAlign=middle;whiteSpace=wrap;rounded=0;fontFamily=Georgia;fontColor=#000000;rotation=-90;" parent="1" vertex="1">
          <mxGeometry x="689" y="478" width="181.5" height="30" as="geometry" />
        </mxCell>
        <mxCell id="zHQZl-b4aj-9DkF3UtBk-128" value="[decoderChn[3], H/2, W/2]" style="text;html=1;strokeColor=none;fillColor=none;align=center;verticalAlign=middle;whiteSpace=wrap;rounded=0;fontFamily=Georgia;fontColor=#000000;rotation=-90;" parent="1" vertex="1">
          <mxGeometry x="731" y="327" width="181.5" height="30" as="geometry" />
        </mxCell>
        <mxCell id="zHQZl-b4aj-9DkF3UtBk-129" value="[decoderChn[4], H, W]" style="text;html=1;strokeColor=none;fillColor=none;align=center;verticalAlign=middle;whiteSpace=wrap;rounded=0;fontFamily=Georgia;fontColor=#000000;rotation=-90;" parent="1" vertex="1">
          <mxGeometry x="784.75" y="136" width="181.5" height="30" as="geometry" />
        </mxCell>
        <mxCell id="zHQZl-b4aj-9DkF3UtBk-130" value="[nCls, H, W]" style="text;html=1;strokeColor=none;fillColor=none;align=center;verticalAlign=middle;whiteSpace=wrap;rounded=0;fontFamily=Georgia;fontColor=#000000;rotation=-90;" parent="1" vertex="1">
          <mxGeometry x="818" y="130" width="181.5" height="30" as="geometry" />
        </mxCell>
        <mxCell id="zHQZl-b4aj-9DkF3UtBk-133" value="" style="rounded=0;whiteSpace=wrap;html=1;fillColor=#647687;strokeColor=#000000;fontColor=#ffffff;rotation=90;" parent="1" vertex="1">
          <mxGeometry x="68" y="764.5" width="31" height="51" as="geometry" />
        </mxCell>
        <mxCell id="zHQZl-b4aj-9DkF3UtBk-134" value="" style="rounded=0;whiteSpace=wrap;html=1;fillColor=#6d8764;strokeColor=#000000;fontColor=#ffffff;rotation=90;" parent="1" vertex="1">
          <mxGeometry x="68" y="706" width="31" height="52" as="geometry" />
        </mxCell>
        <mxCell id="zHQZl-b4aj-9DkF3UtBk-135" value="" style="rounded=0;whiteSpace=wrap;html=1;fillColor=#FFFFFF;strokeColor=#000000;fontColor=#ffffff;" parent="1" vertex="1">
          <mxGeometry x="257" y="775" width="51" height="32" as="geometry" />
        </mxCell>
        <mxCell id="zHQZl-b4aj-9DkF3UtBk-138" value="" style="rounded=0;whiteSpace=wrap;html=1;fillColor=#76608a;strokeColor=#000000;fontColor=#ffffff;" parent="1" vertex="1">
          <mxGeometry x="258" y="716" width="50" height="32" as="geometry" />
        </mxCell>
        <mxCell id="zHQZl-b4aj-9DkF3UtBk-140" value="" style="rounded=0;whiteSpace=wrap;html=1;fillColor=#e3c800;strokeColor=#000000;fontColor=#000000;" parent="1" vertex="1">
          <mxGeometry x="458" y="716" width="51" height="33" as="geometry" />
        </mxCell>
        <mxCell id="zHQZl-b4aj-9DkF3UtBk-143" style="edgeStyle=orthogonalEdgeStyle;rounded=0;orthogonalLoop=1;jettySize=auto;html=1;fillColor=#fa6800;strokeColor=#C73500;" parent="1" edge="1">
          <mxGeometry relative="1" as="geometry">
            <mxPoint x="458" y="793" as="sourcePoint" />
            <mxPoint x="508" y="793" as="targetPoint" />
          </mxGeometry>
        </mxCell>
        <mxCell id="zHQZl-b4aj-9DkF3UtBk-145" style="edgeStyle=orthogonalEdgeStyle;rounded=0;orthogonalLoop=1;jettySize=auto;html=1;exitX=1;exitY=0.5;exitDx=0;exitDy=0;strokeColor=#808080;" parent="1" edge="1">
          <mxGeometry relative="1" as="geometry">
            <mxPoint x="627.25" y="731.58" as="sourcePoint" />
            <mxPoint x="689.75" y="731.58" as="targetPoint" />
          </mxGeometry>
        </mxCell>
        <mxCell id="zHQZl-b4aj-9DkF3UtBk-146" style="edgeStyle=orthogonalEdgeStyle;rounded=0;orthogonalLoop=1;jettySize=auto;html=1;exitX=0.5;exitY=0;exitDx=0;exitDy=0;fillColor=#e3c800;strokeColor=#B09500;" parent="1" edge="1">
          <mxGeometry relative="1" as="geometry">
            <mxPoint x="627" y="792.58" as="sourcePoint" />
            <mxPoint x="690" y="792.58" as="targetPoint" />
          </mxGeometry>
        </mxCell>
        <mxCell id="zHQZl-b4aj-9DkF3UtBk-148" value="Input data" style="text;html=1;strokeColor=none;fillColor=none;align=left;verticalAlign=middle;whiteSpace=wrap;rounded=0;fontFamily=Georgia;fontColor=#000000;rotation=0;" parent="1" vertex="1">
          <mxGeometry x="117" y="717" width="105" height="30" as="geometry" />
        </mxCell>
        <mxCell id="zHQZl-b4aj-9DkF3UtBk-149" value="2D convolution&lt;br&gt;kernel size = (3,3)&lt;br&gt;stride = 1&lt;br&gt;padding = 1" style="text;html=1;strokeColor=none;fillColor=none;align=left;verticalAlign=middle;whiteSpace=wrap;rounded=0;fontFamily=Georgia;fontColor=#000000;rotation=0;" parent="1" vertex="1">
          <mxGeometry x="115" y="777" width="131" height="30" as="geometry" />
        </mxCell>
        <mxCell id="zHQZl-b4aj-9DkF3UtBk-151" value="2D convolution&lt;br&gt;kernel size = (1,1)&lt;br&gt;stride = 1&lt;br&gt;padding = 0" style="text;html=1;strokeColor=none;fillColor=none;align=left;verticalAlign=middle;whiteSpace=wrap;rounded=0;fontFamily=Georgia;fontColor=#000000;rotation=0;" parent="1" vertex="1">
          <mxGeometry x="317" y="717" width="131" height="30" as="geometry" />
        </mxCell>
        <mxCell id="zHQZl-b4aj-9DkF3UtBk-153" value="Concatenation" style="text;html=1;strokeColor=none;fillColor=none;align=left;verticalAlign=middle;whiteSpace=wrap;rounded=0;fontFamily=Georgia;fontColor=#000000;rotation=0;" parent="1" vertex="1">
          <mxGeometry x="317" y="776" width="105" height="30" as="geometry" />
        </mxCell>
        <mxCell id="zHQZl-b4aj-9DkF3UtBk-154" value="Output logits" style="text;html=1;strokeColor=none;fillColor=none;align=left;verticalAlign=middle;whiteSpace=wrap;rounded=0;fontFamily=Georgia;fontColor=#000000;rotation=0;" parent="1" vertex="1">
          <mxGeometry x="515" y="717" width="105" height="30" as="geometry" />
        </mxCell>
        <mxCell id="zHQZl-b4aj-9DkF3UtBk-155" value="2D max pooling&lt;br&gt;kernel size = (2,2)&lt;br&gt;stride = 2&lt;br&gt;padding = 0" style="text;html=1;strokeColor=none;fillColor=none;align=left;verticalAlign=middle;whiteSpace=wrap;rounded=0;fontFamily=Georgia;fontColor=#000000;rotation=0;" parent="1" vertex="1">
          <mxGeometry x="512" y="777" width="131" height="30" as="geometry" />
        </mxCell>
        <mxCell id="zHQZl-b4aj-9DkF3UtBk-157" value="2D transpose&lt;br&gt;kernel size = (2,2)&lt;br&gt;stride = 2&lt;br&gt;padding = 0" style="text;html=1;strokeColor=none;fillColor=none;align=left;verticalAlign=middle;whiteSpace=wrap;rounded=0;fontFamily=Georgia;fontColor=#000000;rotation=0;" parent="1" vertex="1">
          <mxGeometry x="696.25" y="778" width="131" height="30" as="geometry" />
        </mxCell>
        <mxCell id="zHQZl-b4aj-9DkF3UtBk-158" value="Skip connection" style="text;html=1;strokeColor=none;fillColor=none;align=left;verticalAlign=middle;whiteSpace=wrap;rounded=0;fontFamily=Georgia;fontColor=#000000;rotation=0;" parent="1" vertex="1">
          <mxGeometry x="696.25" y="717.5" width="131" height="30" as="geometry" />
        </mxCell>
        <mxCell id="zHQZl-b4aj-9DkF3UtBk-161" value="&lt;font style=&quot;font-size: 18px;&quot;&gt;Encoder&lt;/font&gt;" style="text;html=1;strokeColor=none;fillColor=none;align=center;verticalAlign=middle;whiteSpace=wrap;rounded=0;fontFamily=Georgia;fontColor=#000000;rotation=0;" parent="1" vertex="1">
          <mxGeometry x="120" y="15" width="136.75" height="30" as="geometry" />
        </mxCell>
        <mxCell id="zHQZl-b4aj-9DkF3UtBk-162" value="&lt;span style=&quot;font-size: 18px;&quot;&gt;Decoder&lt;/span&gt;" style="text;html=1;strokeColor=none;fillColor=none;align=center;verticalAlign=middle;whiteSpace=wrap;rounded=0;fontFamily=Georgia;fontColor=#000000;rotation=0;" parent="1" vertex="1">
          <mxGeometry x="493" y="14" width="260.5" height="30" as="geometry" />
        </mxCell>
        <mxCell id="zHQZl-b4aj-9DkF3UtBk-163" value="&lt;span style=&quot;font-size: 18px;&quot;&gt;Bottleneck&lt;/span&gt;" style="text;html=1;strokeColor=none;fillColor=none;align=center;verticalAlign=middle;whiteSpace=wrap;rounded=0;fontFamily=Georgia;fontColor=#000000;rotation=0;" parent="1" vertex="1">
          <mxGeometry x="235" y="585" width="260.5" height="30" as="geometry" />
        </mxCell>
        <mxCell id="zHQZl-b4aj-9DkF3UtBk-167" value="" style="rounded=0;whiteSpace=wrap;html=1;fillColor=#76608a;strokeColor=#000000;fontColor=#ffffff;" parent="1" vertex="1">
          <mxGeometry x="1331" y="23" width="31" height="200" as="geometry" />
        </mxCell>
        <mxCell id="zHQZl-b4aj-9DkF3UtBk-168" value="" style="rounded=0;whiteSpace=wrap;html=1;fillColor=#647687;strokeColor=#000000;fontColor=#ffffff;" parent="1" vertex="1">
          <mxGeometry x="1269" y="23" width="31" height="200" as="geometry" />
        </mxCell>
        <mxCell id="zHQZl-b4aj-9DkF3UtBk-169" value="" style="rounded=0;whiteSpace=wrap;html=1;fillColor=#647687;strokeColor=#000000;fontColor=#ffffff;" parent="1" vertex="1">
          <mxGeometry x="1300" y="23" width="31" height="200" as="geometry" />
        </mxCell>
        <mxCell id="zHQZl-b4aj-9DkF3UtBk-170" value="" style="rounded=0;whiteSpace=wrap;html=1;fillColor=#647687;strokeColor=#000000;fontColor=#ffffff;" parent="1" vertex="1">
          <mxGeometry x="1207" y="263" width="31" height="100" as="geometry" />
        </mxCell>
        <mxCell id="zHQZl-b4aj-9DkF3UtBk-171" style="edgeStyle=orthogonalEdgeStyle;rounded=0;orthogonalLoop=1;jettySize=auto;html=1;exitX=0.5;exitY=0;exitDx=0;exitDy=0;entryX=0.5;entryY=1;entryDx=0;entryDy=0;fillColor=#e3c800;strokeColor=#B09500;" parent="1" source="zHQZl-b4aj-9DkF3UtBk-172" target="zHQZl-b4aj-9DkF3UtBk-182" edge="1">
          <mxGeometry relative="1" as="geometry" />
        </mxCell>
        <mxCell id="zHQZl-b4aj-9DkF3UtBk-172" value="" style="rounded=0;whiteSpace=wrap;html=1;fillColor=#647687;strokeColor=#000000;fontColor=#ffffff;" parent="1" vertex="1">
          <mxGeometry x="1238" y="263" width="31" height="100" as="geometry" />
        </mxCell>
        <mxCell id="zHQZl-b4aj-9DkF3UtBk-173" value="" style="rounded=0;whiteSpace=wrap;html=1;fillColor=#647687;strokeColor=#000000;fontColor=#ffffff;" parent="1" vertex="1">
          <mxGeometry x="1145" y="414" width="31" height="50" as="geometry" />
        </mxCell>
        <mxCell id="zHQZl-b4aj-9DkF3UtBk-174" style="edgeStyle=orthogonalEdgeStyle;rounded=0;orthogonalLoop=1;jettySize=auto;html=1;exitX=0.5;exitY=0;exitDx=0;exitDy=0;entryX=0.5;entryY=1;entryDx=0;entryDy=0;fillColor=#e3c800;strokeColor=#B09500;" parent="1" source="zHQZl-b4aj-9DkF3UtBk-175" target="zHQZl-b4aj-9DkF3UtBk-181" edge="1">
          <mxGeometry relative="1" as="geometry" />
        </mxCell>
        <mxCell id="zHQZl-b4aj-9DkF3UtBk-175" value="" style="rounded=0;whiteSpace=wrap;html=1;fillColor=#647687;strokeColor=#000000;fontColor=#ffffff;" parent="1" vertex="1">
          <mxGeometry x="1176" y="414" width="31" height="50" as="geometry" />
        </mxCell>
        <mxCell id="zHQZl-b4aj-9DkF3UtBk-176" value="" style="rounded=0;whiteSpace=wrap;html=1;fillColor=#647687;strokeColor=#000000;fontColor=#ffffff;" parent="1" vertex="1">
          <mxGeometry x="1083" y="526" width="31" height="25" as="geometry" />
        </mxCell>
        <mxCell id="zHQZl-b4aj-9DkF3UtBk-177" style="edgeStyle=orthogonalEdgeStyle;rounded=0;orthogonalLoop=1;jettySize=auto;html=1;exitX=0.5;exitY=0;exitDx=0;exitDy=0;entryX=0.5;entryY=1;entryDx=0;entryDy=0;fillColor=#e3c800;strokeColor=#B09500;" parent="1" source="zHQZl-b4aj-9DkF3UtBk-178" target="zHQZl-b4aj-9DkF3UtBk-180" edge="1">
          <mxGeometry relative="1" as="geometry" />
        </mxCell>
        <mxCell id="zHQZl-b4aj-9DkF3UtBk-178" value="" style="rounded=0;whiteSpace=wrap;html=1;fillColor=#647687;strokeColor=#000000;fontColor=#ffffff;" parent="1" vertex="1">
          <mxGeometry x="1114" y="526" width="31" height="25" as="geometry" />
        </mxCell>
        <mxCell id="zHQZl-b4aj-9DkF3UtBk-179" value="" style="rounded=0;whiteSpace=wrap;html=1;fillColor=#FFFFFF;strokeColor=#000000;fontColor=#ffffff;" parent="1" vertex="1">
          <mxGeometry x="1052" y="526" width="31" height="25" as="geometry" />
        </mxCell>
        <mxCell id="zHQZl-b4aj-9DkF3UtBk-180" value="" style="rounded=0;whiteSpace=wrap;html=1;fillColor=#FFFFFF;strokeColor=#000000;fontColor=#ffffff;" parent="1" vertex="1">
          <mxGeometry x="1114" y="414" width="31" height="50" as="geometry" />
        </mxCell>
        <mxCell id="zHQZl-b4aj-9DkF3UtBk-181" value="" style="rounded=0;whiteSpace=wrap;html=1;fillColor=#FFFFFF;strokeColor=#000000;fontColor=#ffffff;" parent="1" vertex="1">
          <mxGeometry x="1176" y="263" width="31" height="100" as="geometry" />
        </mxCell>
        <mxCell id="zHQZl-b4aj-9DkF3UtBk-182" value="" style="rounded=0;whiteSpace=wrap;html=1;fillColor=#FFFFFF;strokeColor=#000000;fontColor=#ffffff;" parent="1" vertex="1">
          <mxGeometry x="1238" y="23" width="31" height="200" as="geometry" />
        </mxCell>
        <mxCell id="zHQZl-b4aj-9DkF3UtBk-183" value="" style="rounded=0;whiteSpace=wrap;html=1;fillColor=#e3c800;strokeColor=#000000;fontColor=#000000;" parent="1" vertex="1">
          <mxGeometry x="1362" y="23" width="31" height="200" as="geometry" />
        </mxCell>
        <mxCell id="zHQZl-b4aj-9DkF3UtBk-188" value="[nCls, H, W]" style="text;html=1;strokeColor=none;fillColor=none;align=center;verticalAlign=middle;whiteSpace=wrap;rounded=0;fontFamily=Georgia;fontColor=#000000;rotation=0;" parent="1" vertex="1">
          <mxGeometry x="1347" y="108" width="181.5" height="30" as="geometry" />
        </mxCell>
        <mxCell id="zHQZl-b4aj-9DkF3UtBk-189" value="" style="rounded=0;whiteSpace=wrap;html=1;fillColor=#e3c800;strokeColor=#000000;fontColor=#000000;" parent="1" vertex="1">
          <mxGeometry x="1300" y="263" width="31" height="100" as="geometry" />
        </mxCell>
        <mxCell id="zHQZl-b4aj-9DkF3UtBk-191" value="" style="rounded=0;whiteSpace=wrap;html=1;fillColor=#e3c800;strokeColor=#000000;fontColor=#000000;" parent="1" vertex="1">
          <mxGeometry x="1235" y="414" width="31" height="50" as="geometry" />
        </mxCell>
        <mxCell id="zHQZl-b4aj-9DkF3UtBk-193" value="" style="rounded=0;whiteSpace=wrap;html=1;fillColor=#e3c800;strokeColor=#000000;fontColor=#000000;" parent="1" vertex="1">
          <mxGeometry x="1176" y="526" width="31" height="25" as="geometry" />
        </mxCell>
        <mxCell id="zHQZl-b4aj-9DkF3UtBk-195" value="" style="rounded=0;whiteSpace=wrap;html=1;fillColor=#76608a;strokeColor=#000000;fontColor=#ffffff;" parent="1" vertex="1">
          <mxGeometry x="1269" y="263" width="31" height="100" as="geometry" />
        </mxCell>
        <mxCell id="zHQZl-b4aj-9DkF3UtBk-196" value="" style="rounded=0;whiteSpace=wrap;html=1;fillColor=#76608a;strokeColor=#000000;fontColor=#ffffff;" parent="1" vertex="1">
          <mxGeometry x="1204" y="414" width="31" height="50" as="geometry" />
        </mxCell>
        <mxCell id="zHQZl-b4aj-9DkF3UtBk-197" value="" style="rounded=0;whiteSpace=wrap;html=1;fillColor=#76608a;strokeColor=#000000;fontColor=#ffffff;" parent="1" vertex="1">
          <mxGeometry x="1145" y="526" width="31" height="25" as="geometry" />
        </mxCell>
        <mxCell id="zHQZl-b4aj-9DkF3UtBk-198" value="[nCls, H/2, W/2]" style="text;html=1;strokeColor=none;fillColor=none;align=center;verticalAlign=middle;whiteSpace=wrap;rounded=0;fontFamily=Georgia;fontColor=#000000;rotation=0;" parent="1" vertex="1">
          <mxGeometry x="1300" y="298" width="181.5" height="30" as="geometry" />
        </mxCell>
        <mxCell id="zHQZl-b4aj-9DkF3UtBk-199" value="[nCls, H/4, W/4]" style="text;html=1;strokeColor=none;fillColor=none;align=center;verticalAlign=middle;whiteSpace=wrap;rounded=0;fontFamily=Georgia;fontColor=#000000;rotation=0;" parent="1" vertex="1">
          <mxGeometry x="1238" y="424" width="181.5" height="30" as="geometry" />
        </mxCell>
        <mxCell id="zHQZl-b4aj-9DkF3UtBk-200" value="[nCls, H/8, W/8]" style="text;html=1;strokeColor=none;fillColor=none;align=center;verticalAlign=middle;whiteSpace=wrap;rounded=0;fontFamily=Georgia;fontColor=#000000;rotation=0;" parent="1" vertex="1">
          <mxGeometry x="1176" y="523.5" width="181.5" height="30" as="geometry" />
        </mxCell>
        <mxCell id="zHQZl-b4aj-9DkF3UtBk-201" value="" style="rounded=0;whiteSpace=wrap;html=1;fillColor=none;dashed=1;strokeColor=#1A1A1A;" parent="1" vertex="1">
          <mxGeometry x="977" y="667" width="559" height="139" as="geometry" />
        </mxCell>
        <mxCell id="zHQZl-b4aj-9DkF3UtBk-202" value="" style="rounded=0;whiteSpace=wrap;html=1;fillColor=#647687;strokeColor=#000000;fontColor=#ffffff;rotation=90;" parent="1" vertex="1">
          <mxGeometry x="1004" y="671" width="31" height="51" as="geometry" />
        </mxCell>
        <mxCell id="zHQZl-b4aj-9DkF3UtBk-204" value="" style="rounded=0;whiteSpace=wrap;html=1;fillColor=#FFFFFF;strokeColor=#000000;fontColor=#ffffff;" parent="1" vertex="1">
          <mxGeometry x="993" y="750" width="51" height="32" as="geometry" />
        </mxCell>
        <mxCell id="zHQZl-b4aj-9DkF3UtBk-205" value="" style="rounded=0;whiteSpace=wrap;html=1;fillColor=#76608a;strokeColor=#000000;fontColor=#ffffff;" parent="1" vertex="1">
          <mxGeometry x="1174" y="684" width="50" height="32" as="geometry" />
        </mxCell>
        <mxCell id="zHQZl-b4aj-9DkF3UtBk-206" value="" style="rounded=0;whiteSpace=wrap;html=1;fillColor=#e3c800;strokeColor=#000000;fontColor=#000000;" parent="1" vertex="1">
          <mxGeometry x="1174" y="751" width="51" height="33" as="geometry" />
        </mxCell>
        <mxCell id="zHQZl-b4aj-9DkF3UtBk-208" style="edgeStyle=orthogonalEdgeStyle;rounded=0;orthogonalLoop=1;jettySize=auto;html=1;exitX=1;exitY=0.5;exitDx=0;exitDy=0;strokeColor=#808080;" parent="1" edge="1">
          <mxGeometry relative="1" as="geometry">
            <mxPoint x="1361.25" y="701.58" as="sourcePoint" />
            <mxPoint x="1423.75" y="701.58" as="targetPoint" />
          </mxGeometry>
        </mxCell>
        <mxCell id="zHQZl-b4aj-9DkF3UtBk-209" style="edgeStyle=orthogonalEdgeStyle;rounded=0;orthogonalLoop=1;jettySize=auto;html=1;exitX=0.5;exitY=0;exitDx=0;exitDy=0;fillColor=#e3c800;strokeColor=#B09500;" parent="1" edge="1">
          <mxGeometry relative="1" as="geometry">
            <mxPoint x="1361" y="769.58" as="sourcePoint" />
            <mxPoint x="1424" y="769.58" as="targetPoint" />
          </mxGeometry>
        </mxCell>
        <mxCell id="zHQZl-b4aj-9DkF3UtBk-212" value="2D convolution&lt;br&gt;kernel size = (3,3)&lt;br&gt;stride = 1&lt;br&gt;padding = 1" style="text;html=1;strokeColor=none;fillColor=none;align=left;verticalAlign=middle;whiteSpace=wrap;rounded=0;fontFamily=Georgia;fontColor=#000000;rotation=0;" parent="1" vertex="1">
          <mxGeometry x="1051" y="683" width="131" height="30" as="geometry" />
        </mxCell>
        <mxCell id="zHQZl-b4aj-9DkF3UtBk-213" value="2D convolution&lt;br&gt;kernel size = (1,1)&lt;br&gt;stride = 1&lt;br&gt;padding = 0" style="text;html=1;strokeColor=none;fillColor=none;align=left;verticalAlign=middle;whiteSpace=wrap;rounded=0;fontFamily=Georgia;fontColor=#000000;rotation=0;" parent="1" vertex="1">
          <mxGeometry x="1233" y="686" width="131" height="30" as="geometry" />
        </mxCell>
        <mxCell id="zHQZl-b4aj-9DkF3UtBk-214" value="Concatenation" style="text;html=1;strokeColor=none;fillColor=none;align=left;verticalAlign=middle;whiteSpace=wrap;rounded=0;fontFamily=Georgia;fontColor=#000000;rotation=0;" parent="1" vertex="1">
          <mxGeometry x="1053" y="752" width="105" height="30" as="geometry" />
        </mxCell>
        <mxCell id="zHQZl-b4aj-9DkF3UtBk-215" value="Output logits" style="text;html=1;strokeColor=none;fillColor=none;align=left;verticalAlign=middle;whiteSpace=wrap;rounded=0;fontFamily=Georgia;fontColor=#000000;rotation=0;" parent="1" vertex="1">
          <mxGeometry x="1231" y="754" width="105" height="30" as="geometry" />
        </mxCell>
        <mxCell id="zHQZl-b4aj-9DkF3UtBk-217" value="2D transpose&lt;br&gt;kernel size = (2,2)&lt;br&gt;stride = 2&lt;br&gt;padding = 0" style="text;html=1;strokeColor=none;fillColor=none;align=left;verticalAlign=middle;whiteSpace=wrap;rounded=0;fontFamily=Georgia;fontColor=#000000;rotation=0;" parent="1" vertex="1">
          <mxGeometry x="1430.25" y="755" width="131" height="30" as="geometry" />
        </mxCell>
        <mxCell id="zHQZl-b4aj-9DkF3UtBk-218" value="Skip connection" style="text;html=1;strokeColor=none;fillColor=none;align=left;verticalAlign=middle;whiteSpace=wrap;rounded=0;fontFamily=Georgia;fontColor=#000000;rotation=0;" parent="1" vertex="1">
          <mxGeometry x="1430.25" y="687.5" width="131" height="30" as="geometry" />
        </mxCell>
        <mxCell id="zHQZl-b4aj-9DkF3UtBk-219" style="edgeStyle=orthogonalEdgeStyle;rounded=0;orthogonalLoop=1;jettySize=auto;html=1;strokeColor=#808080;entryX=0;entryY=0.5;entryDx=0;entryDy=0;" parent="1" target="zHQZl-b4aj-9DkF3UtBk-182" edge="1">
          <mxGeometry relative="1" as="geometry">
            <mxPoint x="983" y="123" as="sourcePoint" />
            <mxPoint x="1661.5" y="396" as="targetPoint" />
          </mxGeometry>
        </mxCell>
        <mxCell id="zHQZl-b4aj-9DkF3UtBk-220" style="edgeStyle=orthogonalEdgeStyle;rounded=0;orthogonalLoop=1;jettySize=auto;html=1;strokeColor=#808080;entryX=0;entryY=0.5;entryDx=0;entryDy=0;" parent="1" target="zHQZl-b4aj-9DkF3UtBk-181" edge="1">
          <mxGeometry relative="1" as="geometry">
            <mxPoint x="989" y="313" as="sourcePoint" />
            <mxPoint x="1707.5" y="440" as="targetPoint" />
          </mxGeometry>
        </mxCell>
        <mxCell id="zHQZl-b4aj-9DkF3UtBk-221" style="edgeStyle=orthogonalEdgeStyle;rounded=0;orthogonalLoop=1;jettySize=auto;html=1;strokeColor=#808080;entryX=0;entryY=0.5;entryDx=0;entryDy=0;" parent="1" target="zHQZl-b4aj-9DkF3UtBk-180" edge="1">
          <mxGeometry relative="1" as="geometry">
            <mxPoint x="989" y="439" as="sourcePoint" />
            <mxPoint x="1707.5" y="485" as="targetPoint" />
          </mxGeometry>
        </mxCell>
        <mxCell id="zHQZl-b4aj-9DkF3UtBk-223" style="edgeStyle=orthogonalEdgeStyle;rounded=0;orthogonalLoop=1;jettySize=auto;html=1;strokeColor=#808080;entryX=0;entryY=0.5;entryDx=0;entryDy=0;" parent="1" edge="1">
          <mxGeometry relative="1" as="geometry">
            <mxPoint x="993" y="538" as="sourcePoint" />
            <mxPoint x="1052" y="538.08" as="targetPoint" />
            <Array as="points">
              <mxPoint x="1023" y="538" />
              <mxPoint x="1023" y="538" />
            </Array>
          </mxGeometry>
        </mxCell>
        <mxCell id="zHQZl-b4aj-9DkF3UtBk-225" style="edgeStyle=orthogonalEdgeStyle;rounded=0;orthogonalLoop=1;jettySize=auto;html=1;exitX=0.5;exitY=0;exitDx=0;exitDy=0;entryX=0.5;entryY=1;entryDx=0;entryDy=0;fillColor=#e3c800;strokeColor=#B09500;" parent="1" edge="1">
          <mxGeometry relative="1" as="geometry">
            <mxPoint x="1067.08" y="613" as="sourcePoint" />
            <mxPoint x="1067.08" y="551" as="targetPoint" />
          </mxGeometry>
        </mxCell>
        <mxCell id="zHQZl-b4aj-9DkF3UtBk-234" value="" style="rounded=0;whiteSpace=wrap;html=1;fillColor=#FFFFFF;strokeColor=#000000;fontColor=#ffffff;" parent="1" vertex="1">
          <mxGeometry x="609.75" y="1074" width="31" height="25" as="geometry" />
        </mxCell>
        <mxCell id="zHQZl-b4aj-9DkF3UtBk-235" value="Dilated 2D convolution with dilation rate = asppDilRates[1]" style="text;html=1;strokeColor=none;fillColor=none;align=center;verticalAlign=middle;whiteSpace=wrap;rounded=0;fontFamily=Georgia;fontColor=#000000;rotation=0;" parent="1" vertex="1">
          <mxGeometry x="240.25" y="945.5" width="344" height="30" as="geometry" />
        </mxCell>
        <mxCell id="zHQZl-b4aj-9DkF3UtBk-237" value="" style="strokeWidth=1;html=1;shape=mxgraph.flowchart.annotation_2;align=left;labelPosition=right;pointerEvents=1;fillColor=#e51400;fontColor=#ffffff;strokeColor=#000000;" parent="1" vertex="1">
          <mxGeometry x="170.5" y="919" width="50" height="335" as="geometry" />
        </mxCell>
        <mxCell id="zHQZl-b4aj-9DkF3UtBk-238" value="" style="strokeWidth=1;html=1;shape=mxgraph.flowchart.annotation_2;align=left;labelPosition=right;pointerEvents=1;fillColor=#e51400;fontColor=#ffffff;strokeColor=#000000;rotation=-180;" parent="1" vertex="1">
          <mxGeometry x="559.75" y="919.25" width="50" height="335" as="geometry" />
        </mxCell>
        <mxCell id="zHQZl-b4aj-9DkF3UtBk-239" value="" style="rounded=0;whiteSpace=wrap;html=1;fillColor=#647687;strokeColor=#000000;fontColor=#ffffff;" parent="1" vertex="1">
          <mxGeometry x="213.75" y="948" width="31" height="25" as="geometry" />
        </mxCell>
        <mxCell id="zHQZl-b4aj-9DkF3UtBk-240" value="" style="rounded=0;whiteSpace=wrap;html=1;fillColor=#647687;strokeColor=#000000;fontColor=#ffffff;" parent="1" vertex="1">
          <mxGeometry x="213.75" y="1010" width="31" height="25" as="geometry" />
        </mxCell>
        <mxCell id="zHQZl-b4aj-9DkF3UtBk-241" value="" style="rounded=0;whiteSpace=wrap;html=1;fillColor=#647687;strokeColor=#000000;fontColor=#ffffff;" parent="1" vertex="1">
          <mxGeometry x="213.75" y="1072" width="31" height="25" as="geometry" />
        </mxCell>
        <mxCell id="zHQZl-b4aj-9DkF3UtBk-242" value="" style="rounded=0;whiteSpace=wrap;html=1;fillColor=#647687;strokeColor=#000000;fontColor=#ffffff;" parent="1" vertex="1">
          <mxGeometry x="213.25" y="1196" width="32.24" height="26" as="geometry" />
        </mxCell>
        <mxCell id="zHQZl-b4aj-9DkF3UtBk-243" value="" style="rounded=0;whiteSpace=wrap;html=1;fillColor=#647687;strokeColor=#000000;fontColor=#ffffff;" parent="1" vertex="1">
          <mxGeometry x="213.75" y="1134" width="31" height="25" as="geometry" />
        </mxCell>
        <mxCell id="zHQZl-b4aj-9DkF3UtBk-248" value="Dilated 2D convolution with dilation rate = asppDilRates[2]" style="text;html=1;strokeColor=none;fillColor=none;align=center;verticalAlign=middle;whiteSpace=wrap;rounded=0;fontFamily=Georgia;fontColor=#000000;rotation=0;" parent="1" vertex="1">
          <mxGeometry x="240.25" y="1010" width="344" height="30" as="geometry" />
        </mxCell>
        <mxCell id="zHQZl-b4aj-9DkF3UtBk-249" value="Dilated 2D convolution with dilation rate = asppDilRates[3]" style="text;html=1;strokeColor=none;fillColor=none;align=center;verticalAlign=middle;whiteSpace=wrap;rounded=0;fontFamily=Georgia;fontColor=#000000;rotation=0;" parent="1" vertex="1">
          <mxGeometry x="242" y="1069.5" width="344" height="30" as="geometry" />
        </mxCell>
        <mxCell id="zHQZl-b4aj-9DkF3UtBk-250" value="Dilated 2D convolution with dilation rate = asppDilRates[4]" style="text;html=1;strokeColor=none;fillColor=none;align=center;verticalAlign=middle;whiteSpace=wrap;rounded=0;fontFamily=Georgia;fontColor=#000000;rotation=0;" parent="1" vertex="1">
          <mxGeometry x="240.25" y="1134" width="344" height="30" as="geometry" />
        </mxCell>
        <mxCell id="zHQZl-b4aj-9DkF3UtBk-251" value="Dilated 2D convolution with dilation rate = asppDilRates[5]" style="text;html=1;strokeColor=none;fillColor=none;align=center;verticalAlign=middle;whiteSpace=wrap;rounded=0;fontFamily=Georgia;fontColor=#000000;rotation=0;" parent="1" vertex="1">
          <mxGeometry x="242" y="1194" width="344" height="30" as="geometry" />
        </mxCell>
        <mxCell id="zHQZl-b4aj-9DkF3UtBk-254" value="" style="rounded=0;whiteSpace=wrap;html=1;fillColor=#76608a;strokeColor=#000000;fontColor=#ffffff;" parent="1" vertex="1">
          <mxGeometry x="640.75" y="1074" width="31" height="25" as="geometry" />
        </mxCell>
        <mxCell id="zHQZl-b4aj-9DkF3UtBk-255" value="" style="rounded=0;whiteSpace=wrap;html=1;fillColor=#647687;strokeColor=#000000;fontColor=#ffffff;" parent="1" vertex="1">
          <mxGeometry x="72.75" y="1035" width="31" height="25" as="geometry" />
        </mxCell>
        <mxCell id="DMx1V3XVmTx-wOQY8tZE-2" style="edgeStyle=orthogonalEdgeStyle;rounded=0;orthogonalLoop=1;jettySize=auto;html=1;exitX=0.5;exitY=1;exitDx=0;exitDy=0;strokeColor=#000000;" edge="1" parent="1" source="zHQZl-b4aj-9DkF3UtBk-257" target="zHQZl-b4aj-9DkF3UtBk-237">
          <mxGeometry relative="1" as="geometry" />
        </mxCell>
        <mxCell id="zHQZl-b4aj-9DkF3UtBk-257" value="" style="rounded=0;whiteSpace=wrap;html=1;fillColor=#647687;strokeColor=#000000;fontColor=#ffffff;" parent="1" vertex="1">
          <mxGeometry x="103.75" y="1035" width="31" height="25" as="geometry" />
        </mxCell>
        <mxCell id="zHQZl-b4aj-9DkF3UtBk-260" style="edgeStyle=orthogonalEdgeStyle;rounded=0;orthogonalLoop=1;jettySize=auto;html=1;strokeColor=#808080;entryX=0;entryY=0.5;entryDx=0;entryDy=0;exitX=0.5;exitY=0;exitDx=0;exitDy=0;" parent="1" source="zHQZl-b4aj-9DkF3UtBk-257" target="zHQZl-b4aj-9DkF3UtBk-265" edge="1">
          <mxGeometry relative="1" as="geometry">
            <mxPoint x="121" y="1031" as="sourcePoint" />
            <mxPoint x="783.75" y="1050" as="targetPoint" />
            <Array as="points">
              <mxPoint x="119" y="881" />
              <mxPoint x="720" y="881" />
              <mxPoint x="720" y="1044" />
            </Array>
          </mxGeometry>
        </mxCell>
        <mxCell id="zHQZl-b4aj-9DkF3UtBk-261" value="" style="rounded=0;whiteSpace=wrap;html=1;fillColor=#647687;strokeColor=#000000;fontColor=#ffffff;" parent="1" vertex="1">
          <mxGeometry x="815.75" y="1031" width="31" height="25" as="geometry" />
        </mxCell>
        <mxCell id="zHQZl-b4aj-9DkF3UtBk-262" style="edgeStyle=orthogonalEdgeStyle;rounded=0;orthogonalLoop=1;jettySize=auto;html=1;exitX=0.5;exitY=0;exitDx=0;exitDy=0;fillColor=#e3c800;strokeColor=#B09500;" parent="1" source="zHQZl-b4aj-9DkF3UtBk-263" edge="1">
          <mxGeometry relative="1" as="geometry">
            <mxPoint x="862" y="969" as="targetPoint" />
          </mxGeometry>
        </mxCell>
        <mxCell id="zHQZl-b4aj-9DkF3UtBk-263" value="" style="rounded=0;whiteSpace=wrap;html=1;fillColor=#647687;strokeColor=#000000;fontColor=#ffffff;" parent="1" vertex="1">
          <mxGeometry x="846.75" y="1031" width="31" height="25" as="geometry" />
        </mxCell>
        <mxCell id="zHQZl-b4aj-9DkF3UtBk-265" value="" style="rounded=0;whiteSpace=wrap;html=1;fillColor=#FFFFFF;strokeColor=#000000;fontColor=#ffffff;" parent="1" vertex="1">
          <mxGeometry x="784.75" y="1031" width="31" height="25" as="geometry" />
        </mxCell>
        <mxCell id="zHQZl-b4aj-9DkF3UtBk-266" style="edgeStyle=orthogonalEdgeStyle;rounded=0;orthogonalLoop=1;jettySize=auto;html=1;exitX=0.5;exitY=1;exitDx=0;exitDy=0;entryX=0.5;entryY=0;entryDx=0;entryDy=0;fillColor=#fa6800;strokeColor=#C73500;" parent="1" edge="1">
          <mxGeometry relative="1" as="geometry">
            <mxPoint x="90.75" y="977" as="sourcePoint" />
            <mxPoint x="90.75" y="1035" as="targetPoint" />
          </mxGeometry>
        </mxCell>
        <mxCell id="zHQZl-b4aj-9DkF3UtBk-267" value="" style="rounded=0;whiteSpace=wrap;html=1;fillColor=none;dashed=1;strokeColor=#1A1A1A;" parent="1" vertex="1">
          <mxGeometry x="94" y="1330" width="745" height="139" as="geometry" />
        </mxCell>
        <mxCell id="zHQZl-b4aj-9DkF3UtBk-268" value="" style="rounded=0;whiteSpace=wrap;html=1;fillColor=#647687;strokeColor=#000000;fontColor=#ffffff;rotation=90;" parent="1" vertex="1">
          <mxGeometry x="122" y="1342.5" width="31" height="51" as="geometry" />
        </mxCell>
        <mxCell id="zHQZl-b4aj-9DkF3UtBk-270" value="" style="rounded=0;whiteSpace=wrap;html=1;fillColor=#FFFFFF;strokeColor=#000000;fontColor=#ffffff;" parent="1" vertex="1">
          <mxGeometry x="112" y="1416" width="51" height="32" as="geometry" />
        </mxCell>
        <mxCell id="zHQZl-b4aj-9DkF3UtBk-271" value="" style="rounded=0;whiteSpace=wrap;html=1;fillColor=#76608a;strokeColor=#000000;fontColor=#ffffff;" parent="1" vertex="1">
          <mxGeometry x="298.5" y="1352.5" width="50" height="32" as="geometry" />
        </mxCell>
        <mxCell id="zHQZl-b4aj-9DkF3UtBk-273" style="edgeStyle=orthogonalEdgeStyle;rounded=0;orthogonalLoop=1;jettySize=auto;html=1;fillColor=#fa6800;strokeColor=#C73500;" parent="1" edge="1">
          <mxGeometry relative="1" as="geometry">
            <mxPoint x="295.75" y="1431.58" as="sourcePoint" />
            <mxPoint x="345.75" y="1431.58" as="targetPoint" />
          </mxGeometry>
        </mxCell>
        <mxCell id="zHQZl-b4aj-9DkF3UtBk-274" style="edgeStyle=orthogonalEdgeStyle;rounded=0;orthogonalLoop=1;jettySize=auto;html=1;exitX=1;exitY=0.5;exitDx=0;exitDy=0;strokeColor=#808080;" parent="1" edge="1">
          <mxGeometry relative="1" as="geometry">
            <mxPoint x="479.75" y="1367.58" as="sourcePoint" />
            <mxPoint x="542.25" y="1367.58" as="targetPoint" />
          </mxGeometry>
        </mxCell>
        <mxCell id="zHQZl-b4aj-9DkF3UtBk-275" style="edgeStyle=orthogonalEdgeStyle;rounded=0;orthogonalLoop=1;jettySize=auto;html=1;exitX=0.5;exitY=0;exitDx=0;exitDy=0;fillColor=#e3c800;strokeColor=#B09500;" parent="1" edge="1">
          <mxGeometry relative="1" as="geometry">
            <mxPoint x="479" y="1427.58" as="sourcePoint" />
            <mxPoint x="542" y="1427.58" as="targetPoint" />
          </mxGeometry>
        </mxCell>
        <mxCell id="zHQZl-b4aj-9DkF3UtBk-278" value="2D convolution&lt;br&gt;kernel size = (3,3)&lt;br&gt;stride = 1&lt;br&gt;padding = 1" style="text;html=1;strokeColor=none;fillColor=none;align=left;verticalAlign=middle;whiteSpace=wrap;rounded=0;fontFamily=Georgia;fontColor=#000000;rotation=0;" parent="1" vertex="1">
          <mxGeometry x="169" y="1355" width="131" height="30" as="geometry" />
        </mxCell>
        <mxCell id="zHQZl-b4aj-9DkF3UtBk-279" value="2D convolution&lt;br&gt;kernel size = (1,1)&lt;br&gt;stride = 1&lt;br&gt;padding = 0" style="text;html=1;strokeColor=none;fillColor=none;align=left;verticalAlign=middle;whiteSpace=wrap;rounded=0;fontFamily=Georgia;fontColor=#000000;rotation=0;" parent="1" vertex="1">
          <mxGeometry x="364.5" y="1353.5" width="131" height="30" as="geometry" />
        </mxCell>
        <mxCell id="zHQZl-b4aj-9DkF3UtBk-280" value="Concatenation" style="text;html=1;strokeColor=none;fillColor=none;align=left;verticalAlign=middle;whiteSpace=wrap;rounded=0;fontFamily=Georgia;fontColor=#000000;rotation=0;" parent="1" vertex="1">
          <mxGeometry x="172" y="1417" width="105" height="30" as="geometry" />
        </mxCell>
        <mxCell id="zHQZl-b4aj-9DkF3UtBk-282" value="2D max pooling&lt;br&gt;kernel size = (2,2)&lt;br&gt;stride = 2&lt;br&gt;padding = 0" style="text;html=1;strokeColor=none;fillColor=none;align=left;verticalAlign=middle;whiteSpace=wrap;rounded=0;fontFamily=Georgia;fontColor=#000000;rotation=0;" parent="1" vertex="1">
          <mxGeometry x="362" y="1418" width="131" height="30" as="geometry" />
        </mxCell>
        <mxCell id="zHQZl-b4aj-9DkF3UtBk-283" value="2D transpose&lt;br&gt;kernel size = (2,2)&lt;br&gt;stride = 2&lt;br&gt;padding = 0" style="text;html=1;strokeColor=none;fillColor=none;align=left;verticalAlign=middle;whiteSpace=wrap;rounded=0;fontFamily=Georgia;fontColor=#000000;rotation=0;" parent="1" vertex="1">
          <mxGeometry x="548.25" y="1413" width="131" height="30" as="geometry" />
        </mxCell>
        <mxCell id="DMx1V3XVmTx-wOQY8tZE-5" value="" style="edgeStyle=orthogonalEdgeStyle;rounded=0;orthogonalLoop=1;jettySize=auto;html=1;" edge="1" parent="1" source="zHQZl-b4aj-9DkF3UtBk-284" target="DMx1V3XVmTx-wOQY8tZE-4">
          <mxGeometry relative="1" as="geometry" />
        </mxCell>
        <mxCell id="zHQZl-b4aj-9DkF3UtBk-284" value="Skip connection" style="text;html=1;strokeColor=none;fillColor=none;align=left;verticalAlign=middle;whiteSpace=wrap;rounded=0;fontFamily=Georgia;fontColor=#000000;rotation=0;" parent="1" vertex="1">
          <mxGeometry x="548.75" y="1353.5" width="131" height="30" as="geometry" />
        </mxCell>
        <mxCell id="zHQZl-b4aj-9DkF3UtBk-286" value="AsppChnOut*5, H/16, W/16]" style="text;html=1;strokeColor=none;fillColor=none;align=center;verticalAlign=middle;whiteSpace=wrap;rounded=0;fontFamily=Georgia;fontColor=#000000;rotation=-90;" parent="1" vertex="1">
          <mxGeometry x="485.75" y="1177" width="279" height="28.25" as="geometry" />
        </mxCell>
        <mxCell id="DMx1V3XVmTx-wOQY8tZE-1" style="edgeStyle=orthogonalEdgeStyle;rounded=0;orthogonalLoop=1;jettySize=auto;html=1;exitX=1;exitY=1;exitDx=0;exitDy=0;entryX=0.5;entryY=1;entryDx=0;entryDy=0;strokeColor=#000000;strokeWidth=1;" edge="1" parent="1">
          <mxGeometry relative="1" as="geometry">
            <mxPoint x="671.75" y="1087.25" as="sourcePoint" />
            <mxPoint x="798.5" y="1060" as="targetPoint" />
            <Array as="points">
              <mxPoint x="798.25" y="1087" />
            </Array>
          </mxGeometry>
        </mxCell>
        <mxCell id="zHQZl-b4aj-9DkF3UtBk-287" value="[botChn, H/16, W/16]" style="text;html=1;strokeColor=none;fillColor=none;align=center;verticalAlign=middle;whiteSpace=wrap;rounded=0;fontFamily=Georgia;fontColor=#000000;rotation=-90;" parent="1" vertex="1">
          <mxGeometry x="567.75" y="1159" width="181.5" height="30" as="geometry" />
        </mxCell>
        <mxCell id="zHQZl-b4aj-9DkF3UtBk-288" value="[encoderChn[3], H/8, W/8]" style="text;html=1;strokeColor=none;fillColor=none;align=center;verticalAlign=middle;whiteSpace=wrap;rounded=0;fontFamily=Georgia;fontColor=#000000;rotation=-90;" parent="1" vertex="1">
          <mxGeometry x="-4" y="1159" width="181.5" height="30" as="geometry" />
        </mxCell>
        <mxCell id="zHQZl-b4aj-9DkF3UtBk-289" value="[encoderChn[4], H/8, W/8]" style="text;html=1;strokeColor=none;fillColor=none;align=center;verticalAlign=middle;whiteSpace=wrap;rounded=0;fontFamily=Georgia;fontColor=#000000;rotation=-90;" parent="1" vertex="1">
          <mxGeometry x="29" y="1159" width="181.5" height="30" as="geometry" />
        </mxCell>
        <mxCell id="zHQZl-b4aj-9DkF3UtBk-290" value="[encoderChn[4] + botChn, H/8, W/8]" style="text;html=1;strokeColor=none;fillColor=none;align=center;verticalAlign=middle;whiteSpace=wrap;rounded=0;fontFamily=Georgia;fontColor=#000000;rotation=-90;" parent="1" vertex="1">
          <mxGeometry x="679.75" y="1194" width="241" height="30" as="geometry" />
        </mxCell>
        <mxCell id="zHQZl-b4aj-9DkF3UtBk-291" value="[decoderChn[1], H/8, W/8]" style="text;html=1;strokeColor=none;fillColor=none;align=center;verticalAlign=middle;whiteSpace=wrap;rounded=0;fontFamily=Georgia;fontColor=#000000;rotation=-90;" parent="1" vertex="1">
          <mxGeometry x="771.5" y="1166" width="181.5" height="30" as="geometry" />
        </mxCell>
        <mxCell id="zHQZl-b4aj-9DkF3UtBk-295" value="asppChnOut, H/16, W/16]" style="text;html=1;strokeColor=none;fillColor=none;align=center;verticalAlign=middle;whiteSpace=wrap;rounded=0;fontFamily=Georgia;fontColor=#000000;rotation=0;" parent="1" vertex="1">
          <mxGeometry x="293" y="1254" width="181.5" height="30" as="geometry" />
        </mxCell>
        <mxCell id="zHQZl-b4aj-9DkF3UtBk-296" value="" style="rounded=0;whiteSpace=wrap;html=1;fillColor=#647687;strokeColor=#000000;fontColor=#ffffff;" parent="1" vertex="1">
          <mxGeometry x="1173" y="897" width="31" height="50" as="geometry" />
        </mxCell>
        <mxCell id="zHQZl-b4aj-9DkF3UtBk-297" value="" style="rounded=0;whiteSpace=wrap;html=1;fillColor=#647687;strokeColor=#000000;fontColor=#ffffff;" parent="1" vertex="1">
          <mxGeometry x="1204" y="897" width="31" height="50" as="geometry" />
        </mxCell>
        <mxCell id="zHQZl-b4aj-9DkF3UtBk-299" value="" style="rounded=0;whiteSpace=wrap;html=1;fillColor=#647687;strokeColor=#000000;fontColor=#ffffff;" parent="1" vertex="1">
          <mxGeometry x="1033" y="1010" width="31" height="25" as="geometry" />
        </mxCell>
        <mxCell id="zHQZl-b4aj-9DkF3UtBk-314" style="edgeStyle=orthogonalEdgeStyle;rounded=0;orthogonalLoop=1;jettySize=auto;html=1;exitX=0.5;exitY=0;exitDx=0;exitDy=0;entryX=0.5;entryY=1;entryDx=0;entryDy=0;fillColor=#e51400;strokeColor=#B20000;" parent="1" source="zHQZl-b4aj-9DkF3UtBk-300" target="zHQZl-b4aj-9DkF3UtBk-309" edge="1">
          <mxGeometry relative="1" as="geometry" />
        </mxCell>
        <mxCell id="zHQZl-b4aj-9DkF3UtBk-300" value="" style="rounded=0;whiteSpace=wrap;html=1;fillColor=#647687;strokeColor=#000000;fontColor=#ffffff;" parent="1" vertex="1">
          <mxGeometry x="1064" y="1010" width="31" height="25" as="geometry" />
        </mxCell>
        <mxCell id="zHQZl-b4aj-9DkF3UtBk-302" value="" style="rounded=0;whiteSpace=wrap;html=1;fillColor=#FFFFFF;strokeColor=#000000;fontColor=#ffffff;" parent="1" vertex="1">
          <mxGeometry x="1002" y="1010" width="31" height="25" as="geometry" />
        </mxCell>
        <mxCell id="zHQZl-b4aj-9DkF3UtBk-303" value="" style="rounded=0;whiteSpace=wrap;html=1;fillColor=#FFFFFF;strokeColor=#000000;fontColor=#ffffff;" parent="1" vertex="1">
          <mxGeometry x="1142" y="897" width="31" height="50" as="geometry" />
        </mxCell>
        <mxCell id="zHQZl-b4aj-9DkF3UtBk-309" value="" style="ellipse;whiteSpace=wrap;html=1;aspect=fixed;fillColor=#a0522d;fontColor=#ffffff;strokeColor=#000000;" parent="1" vertex="1">
          <mxGeometry x="1056.5" y="899" width="46" height="46" as="geometry" />
        </mxCell>
        <mxCell id="zHQZl-b4aj-9DkF3UtBk-311" style="edgeStyle=orthogonalEdgeStyle;rounded=0;orthogonalLoop=1;jettySize=auto;html=1;exitX=1;exitY=0.5;exitDx=0;exitDy=0;strokeColor=#808080;" parent="1" edge="1">
          <mxGeometry relative="1" as="geometry">
            <mxPoint x="994" y="921.58" as="sourcePoint" />
            <mxPoint x="1056.5" y="921.58" as="targetPoint" />
            <Array as="points">
              <mxPoint x="1001.5" y="922" />
              <mxPoint x="1001.5" y="922" />
            </Array>
          </mxGeometry>
        </mxCell>
        <mxCell id="zHQZl-b4aj-9DkF3UtBk-313" style="edgeStyle=orthogonalEdgeStyle;rounded=0;orthogonalLoop=1;jettySize=auto;html=1;exitX=1;exitY=0.5;exitDx=0;exitDy=0;entryX=0.5;entryY=1;entryDx=0;entryDy=0;fillColor=#e3c800;strokeColor=#B09500;" parent="1" source="zHQZl-b4aj-9DkF3UtBk-300" target="zHQZl-b4aj-9DkF3UtBk-303" edge="1">
          <mxGeometry relative="1" as="geometry">
            <mxPoint x="1399" y="1018" as="targetPoint" />
            <mxPoint x="1196" y="1072" as="sourcePoint" />
          </mxGeometry>
        </mxCell>
        <mxCell id="zHQZl-b4aj-9DkF3UtBk-315" style="edgeStyle=orthogonalEdgeStyle;rounded=0;orthogonalLoop=1;jettySize=auto;html=1;exitX=1;exitY=0.5;exitDx=0;exitDy=0;strokeColor=#808080;" parent="1" edge="1">
          <mxGeometry relative="1" as="geometry">
            <mxPoint x="1102.5" y="921.58" as="sourcePoint" />
            <mxPoint x="1142" y="922" as="targetPoint" />
            <Array as="points">
              <mxPoint x="1110" y="922" />
              <mxPoint x="1110" y="922" />
            </Array>
          </mxGeometry>
        </mxCell>
        <mxCell id="zHQZl-b4aj-9DkF3UtBk-317" value="" style="rounded=0;whiteSpace=wrap;html=1;fillColor=none;dashed=1;strokeColor=#1A1A1A;" parent="1" vertex="1">
          <mxGeometry x="1011.75" y="1085" width="685" height="182" as="geometry" />
        </mxCell>
        <mxCell id="zHQZl-b4aj-9DkF3UtBk-316" value="" style="ellipse;whiteSpace=wrap;html=1;aspect=fixed;fillColor=#a0522d;fontColor=#ffffff;strokeColor=#000000;" parent="1" vertex="1">
          <mxGeometry x="1672.75" y="1069.25" width="46" height="46" as="geometry" />
        </mxCell>
        <mxCell id="zHQZl-b4aj-9DkF3UtBk-351" style="edgeStyle=orthogonalEdgeStyle;rounded=0;orthogonalLoop=1;jettySize=auto;html=1;exitX=1;exitY=0.5;exitDx=0;exitDy=0;strokeColor=#000000;" parent="1" source="zHQZl-b4aj-9DkF3UtBk-318" edge="1">
          <mxGeometry relative="1" as="geometry">
            <mxPoint x="1102.3055725097656" y="1123.666666666667" as="targetPoint" />
          </mxGeometry>
        </mxCell>
        <mxCell id="zHQZl-b4aj-9DkF3UtBk-318" value="&lt;font color=&quot;#000000&quot;&gt;g&lt;/font&gt;" style="text;html=1;strokeColor=none;fillColor=#bac8d3;align=center;verticalAlign=middle;whiteSpace=wrap;rounded=0;fontFamily=Georgia;rotation=0;fontSize=32;" parent="1" vertex="1">
          <mxGeometry x="1033.5" y="1104" width="41.25" height="40" as="geometry" />
        </mxCell>
        <mxCell id="zHQZl-b4aj-9DkF3UtBk-357" style="edgeStyle=orthogonalEdgeStyle;rounded=0;orthogonalLoop=1;jettySize=auto;html=1;exitX=1;exitY=0.5;exitDx=0;exitDy=0;entryX=0;entryY=0.5;entryDx=0;entryDy=0;strokeColor=#000000;" parent="1" source="zHQZl-b4aj-9DkF3UtBk-319" target="zHQZl-b4aj-9DkF3UtBk-323" edge="1">
          <mxGeometry relative="1" as="geometry">
            <Array as="points">
              <mxPoint x="1094.75" y="1203" />
              <mxPoint x="1094.75" y="1203" />
            </Array>
          </mxGeometry>
        </mxCell>
        <mxCell id="zHQZl-b4aj-9DkF3UtBk-319" value="&lt;font color=&quot;#000000&quot;&gt;x&lt;/font&gt;" style="text;html=1;strokeColor=none;fillColor=#bac8d3;align=center;verticalAlign=middle;whiteSpace=wrap;rounded=0;fontFamily=Georgia;rotation=0;fontSize=32;" parent="1" vertex="1">
          <mxGeometry x="1033.5" y="1185" width="41.25" height="35" as="geometry" />
        </mxCell>
        <mxCell id="zHQZl-b4aj-9DkF3UtBk-322" value="" style="rounded=0;whiteSpace=wrap;html=1;fillColor=#e3c800;strokeColor=#000000;fontColor=#000000;" parent="1" vertex="1">
          <mxGeometry x="1102.75" y="1105" width="50" height="38" as="geometry" />
        </mxCell>
        <mxCell id="zHQZl-b4aj-9DkF3UtBk-323" value="" style="rounded=0;whiteSpace=wrap;html=1;fillColor=#6d8764;strokeColor=#000000;fontColor=#ffffff;" parent="1" vertex="1">
          <mxGeometry x="1102.75" y="1186.5" width="50" height="32" as="geometry" />
        </mxCell>
        <mxCell id="zHQZl-b4aj-9DkF3UtBk-341" style="edgeStyle=orthogonalEdgeStyle;rounded=0;orthogonalLoop=1;jettySize=auto;html=1;exitX=1;exitY=0.5;exitDx=0;exitDy=0;exitPerimeter=0;strokeColor=#000000;" parent="1" source="zHQZl-b4aj-9DkF3UtBk-324" edge="1">
          <mxGeometry relative="1" as="geometry">
            <mxPoint x="1260.0833333333335" y="1162" as="targetPoint" />
          </mxGeometry>
        </mxCell>
        <mxCell id="zHQZl-b4aj-9DkF3UtBk-324" value="" style="verticalLabelPosition=bottom;verticalAlign=top;html=1;shape=mxgraph.flowchart.summing_function;" parent="1" vertex="1">
          <mxGeometry x="1191.75" y="1144" width="36" height="36" as="geometry" />
        </mxCell>
        <mxCell id="zHQZl-b4aj-9DkF3UtBk-358" style="edgeStyle=orthogonalEdgeStyle;rounded=0;orthogonalLoop=1;jettySize=auto;html=1;exitX=1;exitY=0.5;exitDx=0;exitDy=0;strokeColor=#000000;" parent="1" source="zHQZl-b4aj-9DkF3UtBk-329" edge="1">
          <mxGeometry relative="1" as="geometry">
            <mxPoint x="1461.3532133556546" y="1160" as="targetPoint" />
          </mxGeometry>
        </mxCell>
        <mxCell id="zHQZl-b4aj-9DkF3UtBk-329" value="" style="rounded=0;whiteSpace=wrap;html=1;fillColor=#76608a;strokeColor=#000000;fontColor=#ffffff;" parent="1" vertex="1">
          <mxGeometry x="1363.08" y="1144" width="50" height="32" as="geometry" />
        </mxCell>
        <mxCell id="zHQZl-b4aj-9DkF3UtBk-330" value="" style="rounded=0;whiteSpace=wrap;html=1;fillColor=#f0a30a;strokeColor=#000000;fontColor=#000000;" parent="1" vertex="1">
          <mxGeometry x="1548.75" y="1146" width="50" height="32" as="geometry" />
        </mxCell>
        <mxCell id="zHQZl-b4aj-9DkF3UtBk-331" value="" style="verticalLabelPosition=bottom;verticalAlign=top;html=1;shape=mxgraph.flowchart.or;" parent="1" vertex="1">
          <mxGeometry x="1644.75" y="1143" width="37" height="37" as="geometry" />
        </mxCell>
        <mxCell id="zHQZl-b4aj-9DkF3UtBk-332" style="edgeStyle=orthogonalEdgeStyle;rounded=0;orthogonalLoop=1;jettySize=auto;html=1;exitX=0.5;exitY=1;exitDx=0;exitDy=0;strokeColor=#808080;entryX=0.5;entryY=1;entryDx=0;entryDy=0;entryPerimeter=0;" parent="1" source="zHQZl-b4aj-9DkF3UtBk-319" target="zHQZl-b4aj-9DkF3UtBk-331" edge="1">
          <mxGeometry relative="1" as="geometry">
            <mxPoint x="1157.75" y="1301" as="sourcePoint" />
            <mxPoint x="1673.75" y="1301" as="targetPoint" />
            <Array as="points">
              <mxPoint x="1053.75" y="1241" />
              <mxPoint x="1663.75" y="1241" />
            </Array>
          </mxGeometry>
        </mxCell>
        <mxCell id="zHQZl-b4aj-9DkF3UtBk-337" style="edgeStyle=orthogonalEdgeStyle;rounded=0;orthogonalLoop=1;jettySize=auto;html=1;exitX=1;exitY=0.5;exitDx=0;exitDy=0;entryX=0.5;entryY=0;entryDx=0;entryDy=0;entryPerimeter=0;strokeColor=#000000;" parent="1" source="zHQZl-b4aj-9DkF3UtBk-322" target="zHQZl-b4aj-9DkF3UtBk-324" edge="1">
          <mxGeometry relative="1" as="geometry" />
        </mxCell>
        <mxCell id="zHQZl-b4aj-9DkF3UtBk-338" style="edgeStyle=orthogonalEdgeStyle;rounded=0;orthogonalLoop=1;jettySize=auto;html=1;exitX=1;exitY=0.5;exitDx=0;exitDy=0;entryX=0.5;entryY=1;entryDx=0;entryDy=0;entryPerimeter=0;strokeColor=#000000;" parent="1" source="zHQZl-b4aj-9DkF3UtBk-323" target="zHQZl-b4aj-9DkF3UtBk-324" edge="1">
          <mxGeometry relative="1" as="geometry" />
        </mxCell>
        <mxCell id="zHQZl-b4aj-9DkF3UtBk-342" style="edgeStyle=orthogonalEdgeStyle;rounded=0;orthogonalLoop=1;jettySize=auto;html=1;strokeColor=#000000;" parent="1" edge="1">
          <mxGeometry relative="1" as="geometry">
            <mxPoint x="1363.0833333333335" y="1159.58" as="targetPoint" />
            <mxPoint x="1325.75" y="1160" as="sourcePoint" />
          </mxGeometry>
        </mxCell>
        <mxCell id="zHQZl-b4aj-9DkF3UtBk-343" value="" style="group" parent="1" vertex="1" connectable="0">
          <mxGeometry x="1305.75" y="1159" width="50" height="26" as="geometry" />
        </mxCell>
        <mxCell id="zHQZl-b4aj-9DkF3UtBk-344" value="" style="group" parent="zHQZl-b4aj-9DkF3UtBk-343" vertex="1" connectable="0">
          <mxGeometry x="-37.5" y="-10" width="50" height="26" as="geometry" />
        </mxCell>
        <mxCell id="zHQZl-b4aj-9DkF3UtBk-327" value="" style="endArrow=none;html=1;rounded=0;fillColor=#e51400;strokeColor=#B20000;strokeWidth=2;" parent="zHQZl-b4aj-9DkF3UtBk-344" edge="1">
          <mxGeometry width="50" height="50" relative="1" as="geometry">
            <mxPoint y="26" as="sourcePoint" />
            <mxPoint x="27" y="25.5" as="targetPoint" />
          </mxGeometry>
        </mxCell>
        <mxCell id="zHQZl-b4aj-9DkF3UtBk-328" value="" style="endArrow=none;html=1;rounded=0;fillColor=#e51400;strokeColor=#B20000;strokeWidth=2;" parent="zHQZl-b4aj-9DkF3UtBk-344" edge="1">
          <mxGeometry width="50" height="50" relative="1" as="geometry">
            <mxPoint x="27" y="26" as="sourcePoint" />
            <mxPoint x="50" as="targetPoint" />
          </mxGeometry>
        </mxCell>
        <mxCell id="zHQZl-b4aj-9DkF3UtBk-345" value="" style="curved=1;endArrow=none;html=1;rounded=0;strokeWidth=2;fillColor=#e51400;strokeColor=#B20000;endFill=0;" parent="1" edge="1">
          <mxGeometry width="50" height="50" relative="1" as="geometry">
            <mxPoint x="1456.75" y="1194" as="sourcePoint" />
            <mxPoint x="1508.75" y="1131" as="targetPoint" />
            <Array as="points">
              <mxPoint x="1491.75" y="1186" />
              <mxPoint x="1476.75" y="1146" />
            </Array>
          </mxGeometry>
        </mxCell>
        <mxCell id="zHQZl-b4aj-9DkF3UtBk-350" style="edgeStyle=orthogonalEdgeStyle;rounded=0;orthogonalLoop=1;jettySize=auto;html=1;exitX=1;exitY=0.5;exitDx=0;exitDy=0;exitPerimeter=0;strokeColor=#000000;" parent="1" edge="1">
          <mxGeometry relative="1" as="geometry">
            <mxPoint x="1714.0833333333335" y="1161.58" as="targetPoint" />
            <mxPoint x="1681.75" y="1161.58" as="sourcePoint" />
          </mxGeometry>
        </mxCell>
        <mxCell id="zHQZl-b4aj-9DkF3UtBk-363" style="edgeStyle=orthogonalEdgeStyle;rounded=0;orthogonalLoop=1;jettySize=auto;html=1;exitX=1;exitY=0.5;exitDx=0;exitDy=0;strokeColor=#000000;" parent="1" edge="1">
          <mxGeometry relative="1" as="geometry">
            <mxPoint x="1548.7532133556547" y="1159.76" as="targetPoint" />
            <mxPoint x="1500.15" y="1159.76" as="sourcePoint" />
          </mxGeometry>
        </mxCell>
        <mxCell id="zHQZl-b4aj-9DkF3UtBk-365" style="edgeStyle=orthogonalEdgeStyle;rounded=0;orthogonalLoop=1;jettySize=auto;html=1;exitX=1;exitY=0.5;exitDx=0;exitDy=0;entryX=0;entryY=0.5;entryDx=0;entryDy=0;entryPerimeter=0;strokeColor=#000000;" parent="1" source="zHQZl-b4aj-9DkF3UtBk-330" target="zHQZl-b4aj-9DkF3UtBk-331" edge="1">
          <mxGeometry relative="1" as="geometry" />
        </mxCell>
        <mxCell id="zHQZl-b4aj-9DkF3UtBk-366" style="edgeStyle=orthogonalEdgeStyle;rounded=0;orthogonalLoop=1;jettySize=auto;html=1;exitX=1;exitY=0.5;exitDx=0;exitDy=0;exitPerimeter=0;strokeColor=#000000;" parent="1" edge="1">
          <mxGeometry relative="1" as="geometry">
            <mxPoint x="1033.5033333333336" y="1202.26" as="targetPoint" />
            <mxPoint x="1001.17" y="1202.26" as="sourcePoint" />
          </mxGeometry>
        </mxCell>
        <mxCell id="zHQZl-b4aj-9DkF3UtBk-367" style="edgeStyle=orthogonalEdgeStyle;rounded=0;orthogonalLoop=1;jettySize=auto;html=1;exitX=1;exitY=0.5;exitDx=0;exitDy=0;exitPerimeter=0;strokeColor=#000000;" parent="1" edge="1">
          <mxGeometry relative="1" as="geometry">
            <mxPoint x="1033.5033333333336" y="1123.76" as="targetPoint" />
            <mxPoint x="1001.17" y="1123.76" as="sourcePoint" />
          </mxGeometry>
        </mxCell>
        <mxCell id="zHQZl-b4aj-9DkF3UtBk-368" value="Gating signal" style="text;html=1;strokeColor=none;fillColor=none;align=center;verticalAlign=middle;whiteSpace=wrap;rounded=0;fontFamily=Georgia;fontColor=#000000;rotation=0;" parent="1" vertex="1">
          <mxGeometry x="966.25" y="1080" width="181.5" height="30" as="geometry" />
        </mxCell>
        <mxCell id="zHQZl-b4aj-9DkF3UtBk-369" value="Skip connection" style="text;html=1;strokeColor=none;fillColor=none;align=center;verticalAlign=middle;whiteSpace=wrap;rounded=0;fontFamily=Georgia;fontColor=#000000;rotation=0;" parent="1" vertex="1">
          <mxGeometry x="971.25" y="1238" width="181.5" height="30" as="geometry" />
        </mxCell>
        <mxCell id="zHQZl-b4aj-9DkF3UtBk-372" value="Add" style="text;html=1;strokeColor=none;fillColor=none;align=center;verticalAlign=middle;whiteSpace=wrap;rounded=0;fontFamily=Georgia;fontColor=#000000;rotation=0;" parent="1" vertex="1">
          <mxGeometry x="1144.25" y="1125" width="181.5" height="30" as="geometry" />
        </mxCell>
        <mxCell id="zHQZl-b4aj-9DkF3UtBk-373" value="ReLU" style="text;html=1;strokeColor=none;fillColor=none;align=center;verticalAlign=middle;whiteSpace=wrap;rounded=0;fontFamily=Georgia;fontColor=#000000;rotation=0;" parent="1" vertex="1">
          <mxGeometry x="1194.75" y="1182" width="181.5" height="30" as="geometry" />
        </mxCell>
        <mxCell id="zHQZl-b4aj-9DkF3UtBk-374" value="Sigmoid" style="text;html=1;strokeColor=none;fillColor=none;align=center;verticalAlign=middle;whiteSpace=wrap;rounded=0;fontFamily=Georgia;fontColor=#000000;rotation=0;" parent="1" vertex="1">
          <mxGeometry x="1376.25" y="1197" width="181.5" height="30" as="geometry" />
        </mxCell>
        <mxCell id="zHQZl-b4aj-9DkF3UtBk-376" value="Multiply" style="text;html=1;strokeColor=none;fillColor=none;align=center;verticalAlign=middle;whiteSpace=wrap;rounded=0;fontFamily=Georgia;fontColor=#000000;rotation=0;" parent="1" vertex="1">
          <mxGeometry x="1572.5" y="1115.25" width="181.5" height="30" as="geometry" />
        </mxCell>
        <mxCell id="zHQZl-b4aj-9DkF3UtBk-377" value="" style="rounded=0;whiteSpace=wrap;html=1;fillColor=#e3c800;strokeColor=#000000;fontColor=#000000;" parent="1" vertex="1">
          <mxGeometry x="1390" y="885" width="50" height="38" as="geometry" />
        </mxCell>
        <mxCell id="zHQZl-b4aj-9DkF3UtBk-378" value="" style="rounded=0;whiteSpace=wrap;html=1;fillColor=#6d8764;strokeColor=#000000;fontColor=#ffffff;" parent="1" vertex="1">
          <mxGeometry x="1390" y="957" width="50" height="32" as="geometry" />
        </mxCell>
        <mxCell id="zHQZl-b4aj-9DkF3UtBk-379" value="" style="rounded=0;whiteSpace=wrap;html=1;fillColor=#76608a;strokeColor=#000000;fontColor=#ffffff;" parent="1" vertex="1">
          <mxGeometry x="1390" y="1028" width="50" height="32" as="geometry" />
        </mxCell>
        <mxCell id="zHQZl-b4aj-9DkF3UtBk-381" value="" style="rounded=0;whiteSpace=wrap;html=1;fillColor=#f0a30a;strokeColor=#000000;fontColor=#000000;" parent="1" vertex="1">
          <mxGeometry x="1703" y="887" width="50" height="32" as="geometry" />
        </mxCell>
        <mxCell id="zHQZl-b4aj-9DkF3UtBk-383" value="2D Convolution&lt;br&gt;Kernel size = (1,1)&lt;br&gt;Stride=1&lt;br&gt;Out channels = Same as skip connection" style="text;html=1;strokeColor=none;fillColor=none;align=left;verticalAlign=middle;whiteSpace=wrap;rounded=0;fontFamily=Georgia;fontColor=#000000;rotation=0;" parent="1" vertex="1">
          <mxGeometry x="1447" y="888" width="267" height="30" as="geometry" />
        </mxCell>
        <mxCell id="zHQZl-b4aj-9DkF3UtBk-384" value="2D Convolution&lt;br&gt;Kernel size = (1,1)&lt;br&gt;Stride=2&lt;br&gt;Out channels = same as skip connection" style="text;html=1;strokeColor=none;fillColor=none;align=left;verticalAlign=middle;whiteSpace=wrap;rounded=0;fontFamily=Georgia;fontColor=#000000;rotation=0;" parent="1" vertex="1">
          <mxGeometry x="1447" y="961" width="290" height="30" as="geometry" />
        </mxCell>
        <mxCell id="zHQZl-b4aj-9DkF3UtBk-387" value="2D Convolution&lt;br&gt;Kernel size = (1,1)&lt;br&gt;Stride= 1&lt;br&gt;Out channels = 1" style="text;html=1;strokeColor=none;fillColor=none;align=left;verticalAlign=middle;whiteSpace=wrap;rounded=0;fontFamily=Georgia;fontColor=#000000;rotation=0;" parent="1" vertex="1">
          <mxGeometry x="1447" y="1032.5" width="290" height="30" as="geometry" />
        </mxCell>
        <mxCell id="zHQZl-b4aj-9DkF3UtBk-388" value="Upsample by 2 with&lt;br&gt;bilinear interpolation" style="text;html=1;strokeColor=none;fillColor=none;align=left;verticalAlign=middle;whiteSpace=wrap;rounded=0;fontFamily=Georgia;fontColor=#000000;rotation=0;" parent="1" vertex="1">
          <mxGeometry x="1764" y="889" width="119" height="30" as="geometry" />
        </mxCell>
        <mxCell id="zHQZl-b4aj-9DkF3UtBk-389" value="Out with same number of&lt;br&gt;feature maps and spatial&lt;br&gt;resolution as skip connection&lt;br&gt;&lt;div style=&quot;&quot;&gt;&lt;span style=&quot;background-color: initial;&quot;&gt;data&lt;/span&gt;&lt;/div&gt;" style="text;html=1;strokeColor=none;fillColor=none;align=left;verticalAlign=middle;whiteSpace=wrap;rounded=0;fontFamily=Georgia;fontColor=#000000;rotation=0;" parent="1" vertex="1">
          <mxGeometry x="1718.75" y="1152" width="181.5" height="30" as="geometry" />
        </mxCell>
        <mxCell id="zHQZl-b4aj-9DkF3UtBk-391" value="" style="rounded=0;whiteSpace=wrap;html=1;fillColor=#647687;strokeColor=#000000;fontColor=#ffffff;" parent="1" vertex="1">
          <mxGeometry x="155" y="1860" width="32" height="200" as="geometry" />
        </mxCell>
        <mxCell id="zHQZl-b4aj-9DkF3UtBk-392" value="" style="rounded=0;whiteSpace=wrap;html=1;fillColor=#647687;strokeColor=#000000;fontColor=#ffffff;" parent="1" vertex="1">
          <mxGeometry x="187" y="1860" width="31" height="200" as="geometry" />
        </mxCell>
        <mxCell id="zHQZl-b4aj-9DkF3UtBk-401" style="edgeStyle=orthogonalEdgeStyle;rounded=0;orthogonalLoop=1;jettySize=auto;html=1;exitX=1;exitY=0.5;exitDx=0;exitDy=0;entryX=0;entryY=0.5;entryDx=0;entryDy=0;strokeColor=#000000;" parent="1" source="zHQZl-b4aj-9DkF3UtBk-393" target="zHQZl-b4aj-9DkF3UtBk-391" edge="1">
          <mxGeometry relative="1" as="geometry" />
        </mxCell>
        <mxCell id="zHQZl-b4aj-9DkF3UtBk-393" value="" style="rounded=0;whiteSpace=wrap;html=1;fillColor=#FFFFFF;strokeColor=#000000;fontColor=#ffffff;" parent="1" vertex="1">
          <mxGeometry x="68" y="1735" width="31" height="200" as="geometry" />
        </mxCell>
        <mxCell id="zHQZl-b4aj-9DkF3UtBk-405" style="edgeStyle=orthogonalEdgeStyle;rounded=0;orthogonalLoop=1;jettySize=auto;html=1;exitX=1;exitY=0.5;exitDx=0;exitDy=0;exitPerimeter=0;strokeColor=#000000;" parent="1" source="zHQZl-b4aj-9DkF3UtBk-397" edge="1">
          <mxGeometry relative="1" as="geometry">
            <mxPoint x="427.9310344827586" y="1834.689655172414" as="targetPoint" />
          </mxGeometry>
        </mxCell>
        <mxCell id="zHQZl-b4aj-9DkF3UtBk-397" value="" style="verticalLabelPosition=bottom;verticalAlign=top;html=1;shape=mxgraph.flowchart.summing_function;" parent="1" vertex="1">
          <mxGeometry x="286" y="1800" width="70" height="70" as="geometry" />
        </mxCell>
        <mxCell id="zHQZl-b4aj-9DkF3UtBk-399" style="edgeStyle=orthogonalEdgeStyle;rounded=0;orthogonalLoop=1;jettySize=auto;html=1;exitX=1;exitY=0.5;exitDx=0;exitDy=0;entryX=0.5;entryY=1;entryDx=0;entryDy=0;entryPerimeter=0;strokeColor=#000000;" parent="1" source="zHQZl-b4aj-9DkF3UtBk-392" target="zHQZl-b4aj-9DkF3UtBk-397" edge="1">
          <mxGeometry relative="1" as="geometry" />
        </mxCell>
        <mxCell id="zHQZl-b4aj-9DkF3UtBk-400" style="edgeStyle=orthogonalEdgeStyle;rounded=0;orthogonalLoop=1;jettySize=auto;html=1;exitX=1;exitY=0.5;exitDx=0;exitDy=0;entryX=0;entryY=0.5;entryDx=0;entryDy=0;entryPerimeter=0;strokeColor=#000000;" parent="1" source="zHQZl-b4aj-9DkF3UtBk-393" target="zHQZl-b4aj-9DkF3UtBk-397" edge="1">
          <mxGeometry relative="1" as="geometry" />
        </mxCell>
        <mxCell id="zHQZl-b4aj-9DkF3UtBk-402" value="[Feature maps in, H, W]" style="text;html=1;strokeColor=none;fillColor=none;align=center;verticalAlign=middle;whiteSpace=wrap;rounded=0;fontFamily=Georgia;fontColor=#000000;rotation=-90;" parent="1" vertex="1">
          <mxGeometry x="-8.5" y="1820" width="179" height="30" as="geometry" />
        </mxCell>
        <mxCell id="zHQZl-b4aj-9DkF3UtBk-403" value="2 X 2D convolution&lt;br&gt;kernel size = (3,3)&lt;br&gt;stride = 1&lt;br&gt;padding = 1" style="text;html=1;strokeColor=none;fillColor=none;align=center;verticalAlign=middle;whiteSpace=wrap;rounded=0;fontFamily=Georgia;fontColor=#000000;rotation=0;" parent="1" vertex="1">
          <mxGeometry x="122.88" y="2084" width="131" height="30" as="geometry" />
        </mxCell>
        <mxCell id="zHQZl-b4aj-9DkF3UtBk-404" value="Add" style="text;html=1;strokeColor=none;fillColor=none;align=center;verticalAlign=middle;whiteSpace=wrap;rounded=0;fontFamily=Georgia;fontColor=#000000;rotation=0;" parent="1" vertex="1">
          <mxGeometry x="258" y="1770" width="131" height="30" as="geometry" />
        </mxCell>
        <mxCell id="zHQZl-b4aj-9DkF3UtBk-406" value="" style="rounded=0;whiteSpace=wrap;html=1;fillColor=#FFFFFF;strokeColor=#000000;fontColor=#ffffff;" parent="1" vertex="1">
          <mxGeometry x="430.5" y="1735" width="31" height="200" as="geometry" />
        </mxCell>
        <mxCell id="zHQZl-b4aj-9DkF3UtBk-407" value="[Feature maps out, H, W]" style="text;html=1;strokeColor=none;fillColor=none;align=center;verticalAlign=middle;whiteSpace=wrap;rounded=0;fontFamily=Georgia;fontColor=#000000;rotation=-90;" parent="1" vertex="1">
          <mxGeometry x="354" y="1820" width="179" height="30" as="geometry" />
        </mxCell>
        <mxCell id="zHQZl-b4aj-9DkF3UtBk-408" value="" style="rounded=0;whiteSpace=wrap;html=1;fillColor=#FFFFFF;strokeColor=#000000;fontColor=#ffffff;" parent="1" vertex="1">
          <mxGeometry x="1521.83" y="1897.74" width="31" height="25" as="geometry" />
        </mxCell>
        <mxCell id="zHQZl-b4aj-9DkF3UtBk-409" value="Dilated 2D convolution with dilation rate = dilRate[1]" style="text;html=1;strokeColor=none;fillColor=none;align=center;verticalAlign=middle;whiteSpace=wrap;rounded=0;fontFamily=Georgia;fontColor=#000000;rotation=0;" parent="1" vertex="1">
          <mxGeometry x="1152.33" y="1808.47" width="344" height="30" as="geometry" />
        </mxCell>
        <mxCell id="zHQZl-b4aj-9DkF3UtBk-410" value="" style="strokeWidth=1;html=1;shape=mxgraph.flowchart.annotation_2;align=left;labelPosition=right;pointerEvents=1;fillColor=#e51400;fontColor=#ffffff;strokeColor=#B20000;" parent="1" vertex="1">
          <mxGeometry x="1082.58" y="1781.97" width="50" height="257.03" as="geometry" />
        </mxCell>
        <mxCell id="zHQZl-b4aj-9DkF3UtBk-411" value="" style="strokeWidth=1;html=1;shape=mxgraph.flowchart.annotation_2;align=left;labelPosition=right;pointerEvents=1;fillColor=#e51400;fontColor=#ffffff;strokeColor=#B20000;rotation=-180;" parent="1" vertex="1">
          <mxGeometry x="1471.83" y="1782.22" width="50" height="258.22" as="geometry" />
        </mxCell>
        <mxCell id="zHQZl-b4aj-9DkF3UtBk-412" value="" style="rounded=0;whiteSpace=wrap;html=1;fillColor=#a0522d;strokeColor=#000000;fontColor=#ffffff;" parent="1" vertex="1">
          <mxGeometry x="1125.83" y="1810.97" width="31" height="25" as="geometry" />
        </mxCell>
        <mxCell id="zHQZl-b4aj-9DkF3UtBk-413" value="" style="rounded=0;whiteSpace=wrap;html=1;fillColor=#a0522d;strokeColor=#000000;fontColor=#ffffff;" parent="1" vertex="1">
          <mxGeometry x="1125.83" y="1872.97" width="31" height="25" as="geometry" />
        </mxCell>
        <mxCell id="zHQZl-b4aj-9DkF3UtBk-414" value="" style="rounded=0;whiteSpace=wrap;html=1;fillColor=#a0522d;strokeColor=#000000;fontColor=#ffffff;" parent="1" vertex="1">
          <mxGeometry x="1125.83" y="1934.97" width="31" height="25" as="geometry" />
        </mxCell>
        <mxCell id="zHQZl-b4aj-9DkF3UtBk-416" value="" style="rounded=0;whiteSpace=wrap;html=1;fillColor=#a0522d;strokeColor=#000000;fontColor=#ffffff;" parent="1" vertex="1">
          <mxGeometry x="1125.83" y="1996.97" width="31" height="25" as="geometry" />
        </mxCell>
        <mxCell id="zHQZl-b4aj-9DkF3UtBk-417" value="Dilated 2D convolution with dilation rate = dilRate[2]" style="text;html=1;strokeColor=none;fillColor=none;align=center;verticalAlign=middle;whiteSpace=wrap;rounded=0;fontFamily=Georgia;fontColor=#000000;rotation=0;" parent="1" vertex="1">
          <mxGeometry x="1152.33" y="1872.97" width="344" height="30" as="geometry" />
        </mxCell>
        <mxCell id="zHQZl-b4aj-9DkF3UtBk-418" value="Dilated 2D convolution with dilation rate = dilRate[3]" style="text;html=1;strokeColor=none;fillColor=none;align=center;verticalAlign=middle;whiteSpace=wrap;rounded=0;fontFamily=Georgia;fontColor=#000000;rotation=0;" parent="1" vertex="1">
          <mxGeometry x="1154.08" y="1932.47" width="344" height="30" as="geometry" />
        </mxCell>
        <mxCell id="zHQZl-b4aj-9DkF3UtBk-419" value="Dilated 2D convolution with dilation rate = dilRate[4]" style="text;html=1;strokeColor=none;fillColor=none;align=center;verticalAlign=middle;whiteSpace=wrap;rounded=0;fontFamily=Georgia;fontColor=#000000;rotation=0;" parent="1" vertex="1">
          <mxGeometry x="1152.33" y="1996.97" width="344" height="30" as="geometry" />
        </mxCell>
        <mxCell id="zHQZl-b4aj-9DkF3UtBk-422" value="" style="rounded=0;whiteSpace=wrap;html=1;fillColor=#647687;strokeColor=#000000;fontColor=#ffffff;" parent="1" vertex="1">
          <mxGeometry x="981.25" y="1801" width="31" height="25" as="geometry" />
        </mxCell>
        <mxCell id="zHQZl-b4aj-9DkF3UtBk-424" value="" style="rounded=0;whiteSpace=wrap;html=1;fillColor=#647687;strokeColor=#000000;fontColor=#ffffff;" parent="1" vertex="1">
          <mxGeometry x="1012.25" y="1801" width="31" height="25" as="geometry" />
        </mxCell>
        <mxCell id="zHQZl-b4aj-9DkF3UtBk-432" style="edgeStyle=orthogonalEdgeStyle;rounded=0;orthogonalLoop=1;jettySize=auto;html=1;exitX=0.5;exitY=1;exitDx=0;exitDy=0;entryX=0.5;entryY=0;entryDx=0;entryDy=0;fillColor=#fa6800;strokeColor=#C73500;" parent="1" edge="1">
          <mxGeometry relative="1" as="geometry">
            <mxPoint x="999.25" y="1743" as="sourcePoint" />
            <mxPoint x="999.25" y="1801" as="targetPoint" />
          </mxGeometry>
        </mxCell>
        <mxCell id="zHQZl-b4aj-9DkF3UtBk-433" value="" style="rounded=0;whiteSpace=wrap;html=1;fillColor=none;dashed=1;strokeColor=#1A1A1A;" parent="1" vertex="1">
          <mxGeometry x="1000.75" y="2081" width="568" height="139" as="geometry" />
        </mxCell>
        <mxCell id="zHQZl-b4aj-9DkF3UtBk-434" value="" style="rounded=0;whiteSpace=wrap;html=1;fillColor=#647687;strokeColor=#000000;fontColor=#ffffff;rotation=90;" parent="1" vertex="1">
          <mxGeometry x="1021.2499999999999" y="2095" width="31" height="51" as="geometry" />
        </mxCell>
        <mxCell id="zHQZl-b4aj-9DkF3UtBk-435" value="" style="rounded=0;whiteSpace=wrap;html=1;fillColor=#FFFFFF;strokeColor=#000000;fontColor=#ffffff;" parent="1" vertex="1">
          <mxGeometry x="1425.83" y="2103.5" width="51" height="32" as="geometry" />
        </mxCell>
        <mxCell id="zHQZl-b4aj-9DkF3UtBk-437" style="edgeStyle=orthogonalEdgeStyle;rounded=0;orthogonalLoop=1;jettySize=auto;html=1;fillColor=#fa6800;strokeColor=#C73500;" parent="1" edge="1">
          <mxGeometry relative="1" as="geometry">
            <mxPoint x="1011" y="2182.9999999999995" as="sourcePoint" />
            <mxPoint x="1061" y="2182.9999999999995" as="targetPoint" />
          </mxGeometry>
        </mxCell>
        <mxCell id="zHQZl-b4aj-9DkF3UtBk-438" style="edgeStyle=orthogonalEdgeStyle;rounded=0;orthogonalLoop=1;jettySize=auto;html=1;exitX=1;exitY=0.5;exitDx=0;exitDy=0;strokeColor=#808080;" parent="1" edge="1">
          <mxGeometry relative="1" as="geometry">
            <mxPoint x="1198.25" y="2184.66" as="sourcePoint" />
            <mxPoint x="1260.75" y="2184.66" as="targetPoint" />
          </mxGeometry>
        </mxCell>
        <mxCell id="zHQZl-b4aj-9DkF3UtBk-441" value="2D convolution&lt;br&gt;kernel size = (3,3)&lt;br&gt;stride = 1&lt;br&gt;padding = 1" style="text;html=1;strokeColor=none;fillColor=none;align=left;verticalAlign=middle;whiteSpace=wrap;rounded=0;fontFamily=Georgia;fontColor=#000000;rotation=0;" parent="1" vertex="1">
          <mxGeometry x="1067.25" y="2105.5" width="131" height="30" as="geometry" />
        </mxCell>
        <mxCell id="zHQZl-b4aj-9DkF3UtBk-443" value="Concatenation" style="text;html=1;strokeColor=none;fillColor=none;align=left;verticalAlign=middle;whiteSpace=wrap;rounded=0;fontFamily=Georgia;fontColor=#000000;rotation=0;" parent="1" vertex="1">
          <mxGeometry x="1478.83" y="2104.5" width="105" height="30" as="geometry" />
        </mxCell>
        <mxCell id="zHQZl-b4aj-9DkF3UtBk-444" value="2D max pooling&lt;br&gt;kernel size = (2,2)&lt;br&gt;stride = 2&lt;br&gt;padding = 0" style="text;html=1;strokeColor=none;fillColor=none;align=left;verticalAlign=middle;whiteSpace=wrap;rounded=0;fontFamily=Georgia;fontColor=#000000;rotation=0;" parent="1" vertex="1">
          <mxGeometry x="1063.25" y="2170" width="131" height="30" as="geometry" />
        </mxCell>
        <mxCell id="zHQZl-b4aj-9DkF3UtBk-446" value="Skip connection" style="text;html=1;strokeColor=none;fillColor=none;align=left;verticalAlign=middle;whiteSpace=wrap;rounded=0;fontFamily=Georgia;fontColor=#000000;rotation=0;" parent="1" vertex="1">
          <mxGeometry x="1268.25" y="2170" width="131" height="30" as="geometry" />
        </mxCell>
        <mxCell id="zHQZl-b4aj-9DkF3UtBk-447" value="[encoderChn[3], H/4, W/4]" style="text;html=1;strokeColor=none;fillColor=none;align=center;verticalAlign=middle;whiteSpace=wrap;rounded=0;fontFamily=Georgia;fontColor=#000000;rotation=-90;" parent="1" vertex="1">
          <mxGeometry x="1489.62" y="1801" width="157.42" height="28.25" as="geometry" />
        </mxCell>
        <mxCell id="zHQZl-b4aj-9DkF3UtBk-448" value="[chnPerDil*4, H/4, W/4]" style="text;html=1;strokeColor=none;fillColor=none;align=center;verticalAlign=middle;whiteSpace=wrap;rounded=0;fontFamily=Georgia;fontColor=#000000;rotation=-90;" parent="1" vertex="1">
          <mxGeometry x="1446.58" y="1805.97" width="181.5" height="30" as="geometry" />
        </mxCell>
        <mxCell id="zHQZl-b4aj-9DkF3UtBk-453" value="[chnPerDil, H/4, W/4]" style="text;html=1;strokeColor=none;fillColor=none;align=center;verticalAlign=middle;whiteSpace=wrap;rounded=0;fontFamily=Georgia;fontColor=#000000;rotation=0;" parent="1" vertex="1">
          <mxGeometry x="1202.25" y="2037" width="181.5" height="30" as="geometry" />
        </mxCell>
        <mxCell id="zHQZl-b4aj-9DkF3UtBk-454" value="" style="rounded=0;whiteSpace=wrap;html=1;fillColor=#647687;strokeColor=#000000;fontColor=#ffffff;" parent="1" vertex="1">
          <mxGeometry x="1552.83" y="1897.74" width="31" height="25" as="geometry" />
        </mxCell>
        <mxCell id="zHQZl-b4aj-9DkF3UtBk-457" style="edgeStyle=orthogonalEdgeStyle;rounded=0;orthogonalLoop=1;jettySize=auto;html=1;exitX=1;exitY=0.5;exitDx=0;exitDy=0;entryX=0.51;entryY=0.501;entryDx=0;entryDy=0;entryPerimeter=0;fillColor=#e51400;strokeColor=#B20000;" parent="1" source="zHQZl-b4aj-9DkF3UtBk-424" target="zHQZl-b4aj-9DkF3UtBk-410" edge="1">
          <mxGeometry relative="1" as="geometry" />
        </mxCell>
        <mxCell id="zHQZl-b4aj-9DkF3UtBk-458" value="[encoderChn[2], H/2, W/2]" style="text;html=1;strokeColor=none;fillColor=none;align=center;verticalAlign=middle;whiteSpace=wrap;rounded=0;fontFamily=Georgia;fontColor=#000000;rotation=-90;" parent="1" vertex="1">
          <mxGeometry x="937" y="1892.74" width="181.5" height="30" as="geometry" />
        </mxCell>
        <mxCell id="zHQZl-b4aj-9DkF3UtBk-459" style="edgeStyle=orthogonalEdgeStyle;rounded=0;orthogonalLoop=1;jettySize=auto;html=1;exitX=0.5;exitY=1;exitDx=0;exitDy=0;fillColor=#e51400;strokeColor=#B20000;" parent="1" source="zHQZl-b4aj-9DkF3UtBk-454" edge="1">
          <mxGeometry relative="1" as="geometry">
            <mxPoint x="1583.83" y="1911" as="sourcePoint" />
            <mxPoint x="1649.25" y="2103" as="targetPoint" />
          </mxGeometry>
        </mxCell>
        <mxCell id="zHQZl-b4aj-9DkF3UtBk-460" style="edgeStyle=orthogonalEdgeStyle;rounded=0;orthogonalLoop=1;jettySize=auto;html=1;exitX=1;exitY=0.5;exitDx=0;exitDy=0;strokeColor=#808080;" parent="1" edge="1">
          <mxGeometry relative="1" as="geometry">
            <mxPoint x="1581.58" y="1910.99" as="sourcePoint" />
            <mxPoint x="1860.25" y="1911" as="targetPoint" />
          </mxGeometry>
        </mxCell>
        <mxCell id="zHQZl-b4aj-9DkF3UtBk-463" style="edgeStyle=orthogonalEdgeStyle;rounded=0;orthogonalLoop=1;jettySize=auto;html=1;exitX=0.5;exitY=0;exitDx=0;exitDy=0;strokeColor=#808080;" parent="1" source="zHQZl-b4aj-9DkF3UtBk-424" edge="1">
          <mxGeometry relative="1" as="geometry">
            <mxPoint x="1129.25" y="1742" as="sourcePoint" />
            <mxPoint x="1865.25" y="1735" as="targetPoint" />
            <Array as="points">
              <mxPoint x="1027.25" y="1735" />
              <mxPoint x="1865.25" y="1735" />
            </Array>
          </mxGeometry>
        </mxCell>
        <mxCell id="zHQZl-b4aj-9DkF3UtBk-465" value="" style="rounded=0;whiteSpace=wrap;html=1;fillColor=#a0522d;strokeColor=#000000;fontColor=#ffffff;" parent="1" vertex="1">
          <mxGeometry x="1202.25" y="2104" width="51.25" height="33" as="geometry" />
        </mxCell>
        <mxCell id="zHQZl-b4aj-9DkF3UtBk-466" value="2D dilated convolution&lt;br&gt;kernel size = (3,3)&lt;br&gt;stride = 1" style="text;html=1;strokeColor=none;fillColor=none;align=left;verticalAlign=middle;whiteSpace=wrap;rounded=0;fontFamily=Georgia;fontColor=#000000;rotation=0;" parent="1" vertex="1">
          <mxGeometry x="1263.25" y="2105.5" width="131" height="30" as="geometry" />
        </mxCell>
        <mxCell id="7vqI0_H_4FVKDy7AsIO3-89" style="edgeStyle=orthogonalEdgeStyle;rounded=0;orthogonalLoop=1;jettySize=auto;html=1;exitX=0.5;exitY=1;exitDx=0;exitDy=0;exitPerimeter=0;entryX=1;entryY=0.5;entryDx=0;entryDy=0;fontColor=#000000;strokeWidth=2;strokeColor=#BF6A4B;" parent="1" source="7vqI0_H_4FVKDy7AsIO3-5" target="7vqI0_H_4FVKDy7AsIO3-12" edge="1">
          <mxGeometry relative="1" as="geometry">
            <Array as="points">
              <mxPoint x="243" y="-651" />
              <mxPoint x="319" y="-651" />
              <mxPoint x="319" y="-559" />
            </Array>
          </mxGeometry>
        </mxCell>
        <mxCell id="7vqI0_H_4FVKDy7AsIO3-5" value="" style="shape=cylinder3;whiteSpace=wrap;html=1;boundedLbl=1;backgroundOutline=1;size=15;fillColor=#808080;" parent="1" vertex="1">
          <mxGeometry x="213.25" y="-810" width="60" height="80" as="geometry" />
        </mxCell>
        <mxCell id="7vqI0_H_4FVKDy7AsIO3-87" style="edgeStyle=orthogonalEdgeStyle;rounded=0;orthogonalLoop=1;jettySize=auto;html=1;exitX=0.5;exitY=1;exitDx=0;exitDy=0;exitPerimeter=0;entryX=0.5;entryY=0;entryDx=0;entryDy=0;fontColor=#000000;strokeWidth=2;strokeColor=#BF6A4B;" parent="1" source="7vqI0_H_4FVKDy7AsIO3-6" target="7vqI0_H_4FVKDy7AsIO3-11" edge="1">
          <mxGeometry relative="1" as="geometry" />
        </mxCell>
        <mxCell id="7vqI0_H_4FVKDy7AsIO3-6" value="" style="shape=cylinder3;whiteSpace=wrap;html=1;boundedLbl=1;backgroundOutline=1;size=15;fillColor=#808080;" parent="1" vertex="1">
          <mxGeometry x="24" y="-810" width="60" height="80" as="geometry" />
        </mxCell>
        <mxCell id="7vqI0_H_4FVKDy7AsIO3-88" style="edgeStyle=orthogonalEdgeStyle;rounded=0;orthogonalLoop=1;jettySize=auto;html=1;exitX=0.5;exitY=1;exitDx=0;exitDy=0;entryX=0;entryY=0.5;entryDx=0;entryDy=0;fontColor=#000000;strokeWidth=2;strokeColor=#BF6A4B;" parent="1" source="7vqI0_H_4FVKDy7AsIO3-11" target="7vqI0_H_4FVKDy7AsIO3-12" edge="1">
          <mxGeometry relative="1" as="geometry" />
        </mxCell>
        <mxCell id="7vqI0_H_4FVKDy7AsIO3-11" value="&lt;span style=&quot;font-size: 18px;&quot;&gt;makeMasks()&lt;/span&gt;" style="text;html=1;strokeColor=none;fillColor=none;align=center;verticalAlign=middle;whiteSpace=wrap;rounded=0;fontFamily=Georgia;fontColor=#000000;rotation=0;" parent="1" vertex="1">
          <mxGeometry x="84" y="-656" width="130.75" height="30" as="geometry" />
        </mxCell>
        <mxCell id="7vqI0_H_4FVKDy7AsIO3-90" style="edgeStyle=orthogonalEdgeStyle;rounded=0;orthogonalLoop=1;jettySize=auto;html=1;exitX=0.75;exitY=1;exitDx=0;exitDy=0;entryX=0;entryY=0.5;entryDx=0;entryDy=0;fontColor=#000000;strokeWidth=2;strokeColor=#BF6A4B;" parent="1" source="7vqI0_H_4FVKDy7AsIO3-12" target="7vqI0_H_4FVKDy7AsIO3-69" edge="1">
          <mxGeometry relative="1" as="geometry" />
        </mxCell>
        <mxCell id="7vqI0_H_4FVKDy7AsIO3-91" style="edgeStyle=orthogonalEdgeStyle;rounded=0;orthogonalLoop=1;jettySize=auto;html=1;exitX=0.25;exitY=1;exitDx=0;exitDy=0;entryX=1;entryY=0.5;entryDx=0;entryDy=0;fontColor=#000000;strokeWidth=2;strokeColor=#BF6A4B;" parent="1" source="7vqI0_H_4FVKDy7AsIO3-12" target="7vqI0_H_4FVKDy7AsIO3-67" edge="1">
          <mxGeometry relative="1" as="geometry" />
        </mxCell>
        <mxCell id="7vqI0_H_4FVKDy7AsIO3-92" style="edgeStyle=orthogonalEdgeStyle;rounded=0;orthogonalLoop=1;jettySize=auto;html=1;exitX=0.5;exitY=1;exitDx=0;exitDy=0;fontColor=#000000;strokeWidth=2;strokeColor=#BF6A4B;" parent="1" source="7vqI0_H_4FVKDy7AsIO3-12" target="7vqI0_H_4FVKDy7AsIO3-13" edge="1">
          <mxGeometry relative="1" as="geometry" />
        </mxCell>
        <mxCell id="7vqI0_H_4FVKDy7AsIO3-12" value="&lt;span style=&quot;font-size: 18px;&quot;&gt;makeChips()&lt;/span&gt;" style="text;html=1;strokeColor=none;fillColor=none;align=center;verticalAlign=middle;whiteSpace=wrap;rounded=0;fontFamily=Georgia;fontColor=#000000;rotation=0;" parent="1" vertex="1">
          <mxGeometry x="177" y="-573" width="109" height="28" as="geometry" />
        </mxCell>
        <mxCell id="7vqI0_H_4FVKDy7AsIO3-93" style="edgeStyle=orthogonalEdgeStyle;rounded=0;orthogonalLoop=1;jettySize=auto;html=1;exitX=0.5;exitY=1;exitDx=0;exitDy=0;fontColor=#000000;strokeWidth=2;strokeColor=#BF6A4B;" parent="1" source="7vqI0_H_4FVKDy7AsIO3-13" target="7vqI0_H_4FVKDy7AsIO3-15" edge="1">
          <mxGeometry relative="1" as="geometry" />
        </mxCell>
        <mxCell id="7vqI0_H_4FVKDy7AsIO3-13" value="&lt;span style=&quot;font-size: 18px;&quot;&gt;makeChipsDF()&lt;/span&gt;" style="text;html=1;strokeColor=none;fillColor=none;align=center;verticalAlign=middle;whiteSpace=wrap;rounded=0;fontFamily=Georgia;fontColor=#000000;rotation=0;" parent="1" vertex="1">
          <mxGeometry x="158.97" y="-463" width="146.75" height="30" as="geometry" />
        </mxCell>
        <mxCell id="7vqI0_H_4FVKDy7AsIO3-94" style="edgeStyle=orthogonalEdgeStyle;rounded=0;orthogonalLoop=1;jettySize=auto;html=1;exitX=0.5;exitY=1;exitDx=0;exitDy=0;fontColor=#000000;strokeWidth=2;strokeColor=#BF6A4B;" parent="1" source="7vqI0_H_4FVKDy7AsIO3-15" target="7vqI0_H_4FVKDy7AsIO3-85" edge="1">
          <mxGeometry relative="1" as="geometry" />
        </mxCell>
        <mxCell id="7vqI0_H_4FVKDy7AsIO3-15" value="&lt;span style=&quot;font-size: 18px;&quot;&gt;defineSegDataSet()&lt;/span&gt;" style="text;html=1;strokeColor=none;fillColor=none;align=center;verticalAlign=middle;whiteSpace=wrap;rounded=0;fontFamily=Georgia;fontColor=#000000;rotation=0;" parent="1" vertex="1">
          <mxGeometry x="151.1" y="-375" width="162.5" height="30" as="geometry" />
        </mxCell>
        <mxCell id="7vqI0_H_4FVKDy7AsIO3-16" value="&lt;span style=&quot;font-size: 18px;&quot;&gt;Reference&lt;br&gt;vector&lt;br&gt;data&lt;br&gt;&lt;/span&gt;" style="text;html=1;strokeColor=none;fillColor=none;align=center;verticalAlign=middle;whiteSpace=wrap;rounded=0;fontFamily=Georgia;fontColor=#000000;rotation=0;" parent="1" vertex="1">
          <mxGeometry x="68" y="-820" width="111.63" height="30" as="geometry" />
        </mxCell>
        <mxCell id="7vqI0_H_4FVKDy7AsIO3-17" value="&lt;span style=&quot;font-size: 18px;&quot;&gt;Raster&lt;br&gt;predictor&lt;br&gt;variables&lt;br&gt;&lt;/span&gt;" style="text;html=1;strokeColor=none;fillColor=none;align=center;verticalAlign=middle;whiteSpace=wrap;rounded=0;fontFamily=Georgia;fontColor=#000000;rotation=0;" parent="1" vertex="1">
          <mxGeometry x="265.19" y="-820" width="111.63" height="30" as="geometry" />
        </mxCell>
        <mxCell id="7vqI0_H_4FVKDy7AsIO3-119" style="edgeStyle=orthogonalEdgeStyle;rounded=0;orthogonalLoop=1;jettySize=auto;html=1;exitX=0.5;exitY=1;exitDx=0;exitDy=0;entryX=0.5;entryY=0;entryDx=0;entryDy=0;strokeWidth=2;strokeColor=#BF6A4B;" parent="1" source="7vqI0_H_4FVKDy7AsIO3-28" target="7vqI0_H_4FVKDy7AsIO3-116" edge="1">
          <mxGeometry relative="1" as="geometry" />
        </mxCell>
        <mxCell id="7vqI0_H_4FVKDy7AsIO3-28" value="&lt;font style=&quot;font-size: 21px;&quot;&gt;Training loop&lt;/font&gt;" style="ellipse;whiteSpace=wrap;html=1;aspect=fixed;gradientColor=none;fillColor=#401D36;strokeColor=#401D36;strokeWidth=4;fontColor=#FFFFFF;" parent="1" vertex="1">
          <mxGeometry x="535.5" y="-528" width="138" height="138" as="geometry" />
        </mxCell>
        <mxCell id="7vqI0_H_4FVKDy7AsIO3-108" style="edgeStyle=orthogonalEdgeStyle;rounded=0;orthogonalLoop=1;jettySize=auto;html=1;exitX=0.5;exitY=1;exitDx=0;exitDy=0;fontColor=#000000;strokeWidth=2;strokeColor=#BF6A4B;" parent="1" source="7vqI0_H_4FVKDy7AsIO3-34" target="7vqI0_H_4FVKDy7AsIO3-70" edge="1">
          <mxGeometry relative="1" as="geometry" />
        </mxCell>
        <mxCell id="7vqI0_H_4FVKDy7AsIO3-34" value="UNet parameters" style="swimlane;whiteSpace=wrap;html=1;startSize=23;fillColor=#D9B384;fontColor=#000000;strokeWidth=2;strokeColor=#D9B384;" parent="1" vertex="1">
          <mxGeometry x="381" y="-838" width="210.25" height="150" as="geometry" />
        </mxCell>
        <mxCell id="7vqI0_H_4FVKDy7AsIO3-36" value="nChn, nCls, &lt;br&gt;freezeEncoder, freezeBottleneck, &lt;br&gt;encoderChn, decoderChn, botChn, &lt;br&gt;useLeaky, negative_slope, &lt;br&gt;&lt;div style=&quot;&quot;&gt;&lt;span style=&quot;background-color: initial;&quot;&gt;useAttn, useRes,&lt;/span&gt;&lt;/div&gt;useDilation, useASPP, useDS, &lt;br&gt;perDilChn, dilRates, &lt;br&gt;asppChnOut, asppDilRates" style="text;html=1;align=left;verticalAlign=middle;resizable=0;points=[];autosize=1;strokeColor=none;fillColor=none;fontColor=#000000;" parent="7vqI0_H_4FVKDy7AsIO3-34" vertex="1">
          <mxGeometry x="6.25" y="23" width="204" height="127" as="geometry" />
        </mxCell>
        <mxCell id="7vqI0_H_4FVKDy7AsIO3-41" value="Loss" style="swimlane;whiteSpace=wrap;html=1;fontColor=#000000;strokeColor=#D9B384;fillColor=#D9B384;strokeWidth=2;" parent="1" vertex="1">
          <mxGeometry x="756" y="-838" width="177" height="81" as="geometry" />
        </mxCell>
        <mxCell id="7vqI0_H_4FVKDy7AsIO3-42" value="defineDiceFamilyLoss()" style="text;html=1;align=center;verticalAlign=middle;resizable=0;points=[];autosize=1;strokeColor=none;fillColor=none;fontColor=#000000;" parent="7vqI0_H_4FVKDy7AsIO3-41" vertex="1">
          <mxGeometry y="23" width="143" height="26" as="geometry" />
        </mxCell>
        <mxCell id="7vqI0_H_4FVKDy7AsIO3-46" value="torch::nn_bce_loss()" style="text;html=1;align=center;verticalAlign=middle;resizable=0;points=[];autosize=1;strokeColor=none;fillColor=none;fontColor=#000000;" parent="7vqI0_H_4FVKDy7AsIO3-41" vertex="1">
          <mxGeometry y="42" width="127" height="26" as="geometry" />
        </mxCell>
        <mxCell id="7vqI0_H_4FVKDy7AsIO3-100" value="torch::nn_cross_entropy_loss()" style="text;html=1;align=center;verticalAlign=middle;resizable=0;points=[];autosize=1;strokeColor=none;fillColor=none;fontColor=#000000;" parent="7vqI0_H_4FVKDy7AsIO3-41" vertex="1">
          <mxGeometry y="59" width="183" height="26" as="geometry" />
        </mxCell>
        <mxCell id="7vqI0_H_4FVKDy7AsIO3-153" style="edgeStyle=orthogonalEdgeStyle;rounded=0;orthogonalLoop=1;jettySize=auto;html=1;exitX=0.5;exitY=1;exitDx=0;exitDy=0;strokeWidth=2;strokeColor=#BF6A4B;" parent="1" source="7vqI0_H_4FVKDy7AsIO3-47" target="7vqI0_H_4FVKDy7AsIO3-28" edge="1">
          <mxGeometry relative="1" as="geometry" />
        </mxCell>
        <mxCell id="7vqI0_H_4FVKDy7AsIO3-47" value="Optimizer" style="swimlane;whiteSpace=wrap;html=1;fontColor=#000000;strokeColor=#D9B384;fillColor=#D9B384;strokeWidth=2;" parent="1" vertex="1">
          <mxGeometry x="605" y="-838" width="136" height="106" as="geometry" />
        </mxCell>
        <mxCell id="7vqI0_H_4FVKDy7AsIO3-102" value="torch::optim_sgd()" style="text;html=1;align=center;verticalAlign=middle;resizable=0;points=[];autosize=1;strokeColor=none;fillColor=none;fontColor=#000000;" parent="7vqI0_H_4FVKDy7AsIO3-47" vertex="1">
          <mxGeometry y="23" width="115" height="26" as="geometry" />
        </mxCell>
        <mxCell id="7vqI0_H_4FVKDy7AsIO3-105" value="torch::optim_rmsprop()" style="text;html=1;align=center;verticalAlign=middle;resizable=0;points=[];autosize=1;strokeColor=none;fillColor=none;fontColor=#000000;" parent="7vqI0_H_4FVKDy7AsIO3-47" vertex="1">
          <mxGeometry y="83" width="139" height="26" as="geometry" />
        </mxCell>
        <mxCell id="7vqI0_H_4FVKDy7AsIO3-106" value="torch::optim_adamw()" style="text;html=1;align=center;verticalAlign=middle;resizable=0;points=[];autosize=1;strokeColor=none;fillColor=none;fontColor=#000000;" parent="7vqI0_H_4FVKDy7AsIO3-47" vertex="1">
          <mxGeometry y="43" width="134" height="26" as="geometry" />
        </mxCell>
        <mxCell id="7vqI0_H_4FVKDy7AsIO3-107" value="torch::optim_adagrad()" style="text;html=1;align=center;verticalAlign=middle;resizable=0;points=[];autosize=1;strokeColor=none;fillColor=none;fontColor=#000000;" parent="7vqI0_H_4FVKDy7AsIO3-47" vertex="1">
          <mxGeometry y="63" width="139" height="26" as="geometry" />
        </mxCell>
        <mxCell id="7vqI0_H_4FVKDy7AsIO3-53" value="Callbacks" style="swimlane;whiteSpace=wrap;html=1;fontColor=#000000;strokeColor=#D9B384;fillColor=#D9B384;strokeWidth=2;" parent="1" vertex="1">
          <mxGeometry x="724.75" y="-663" width="213" height="108.5" as="geometry" />
        </mxCell>
        <mxCell id="7vqI0_H_4FVKDy7AsIO3-54" value="luz::luz_callback_csv_logger()" style="text;html=1;align=center;verticalAlign=middle;resizable=0;points=[];autosize=1;strokeColor=none;fillColor=none;fontColor=#000000;" parent="7vqI0_H_4FVKDy7AsIO3-53" vertex="1">
          <mxGeometry x="-4" y="26" width="178" height="26" as="geometry" />
        </mxCell>
        <mxCell id="7vqI0_H_4FVKDy7AsIO3-120" value="luz::luz_callback_model_checkpoint()" style="text;html=1;align=center;verticalAlign=middle;resizable=0;points=[];autosize=1;strokeColor=none;fillColor=none;fontColor=#000000;" parent="7vqI0_H_4FVKDy7AsIO3-53" vertex="1">
          <mxGeometry x="-4" y="43.5" width="217" height="26" as="geometry" />
        </mxCell>
        <mxCell id="7vqI0_H_4FVKDy7AsIO3-121" value="luz::luz_callback_early_stopping()" style="text;html=1;align=center;verticalAlign=middle;resizable=0;points=[];autosize=1;strokeColor=none;fillColor=none;fontColor=#000000;" parent="7vqI0_H_4FVKDy7AsIO3-53" vertex="1">
          <mxGeometry x="-4" y="62.5" width="198" height="26" as="geometry" />
        </mxCell>
        <mxCell id="7vqI0_H_4FVKDy7AsIO3-122" value="luz::luz_callback_lr_scheduler()" style="text;html=1;align=center;verticalAlign=middle;resizable=0;points=[];autosize=1;strokeColor=none;fillColor=none;fontColor=#000000;" parent="7vqI0_H_4FVKDy7AsIO3-53" vertex="1">
          <mxGeometry x="-4" y="83.5" width="185" height="26" as="geometry" />
        </mxCell>
        <mxCell id="7vqI0_H_4FVKDy7AsIO3-67" value="&lt;span style=&quot;font-size: 18px;&quot;&gt;viewChips()&lt;/span&gt;" style="text;html=1;strokeColor=none;fillColor=none;align=center;verticalAlign=middle;whiteSpace=wrap;rounded=0;fontFamily=Georgia;fontColor=#000000;rotation=0;" parent="1" vertex="1">
          <mxGeometry x="24" y="-515.53" width="105.87" height="30" as="geometry" />
        </mxCell>
        <mxCell id="7vqI0_H_4FVKDy7AsIO3-68" value="&lt;span style=&quot;font-size: 18px;&quot;&gt;viewBatch()&lt;/span&gt;" style="text;html=1;strokeColor=none;fillColor=none;align=center;verticalAlign=middle;whiteSpace=wrap;rounded=0;fontFamily=Georgia;fontColor=#000000;rotation=0;" parent="1" vertex="1">
          <mxGeometry x="19.25" y="-203" width="95.75" height="30" as="geometry" />
        </mxCell>
        <mxCell id="7vqI0_H_4FVKDy7AsIO3-96" style="edgeStyle=orthogonalEdgeStyle;rounded=0;orthogonalLoop=1;jettySize=auto;html=1;exitX=0.5;exitY=1;exitDx=0;exitDy=0;entryX=1;entryY=0.5;entryDx=0;entryDy=0;fontColor=#000000;strokeWidth=2;strokeColor=#BF6A4B;" parent="1" source="7vqI0_H_4FVKDy7AsIO3-69" target="7vqI0_H_4FVKDy7AsIO3-15" edge="1">
          <mxGeometry relative="1" as="geometry" />
        </mxCell>
        <mxCell id="7vqI0_H_4FVKDy7AsIO3-69" value="&lt;span style=&quot;font-size: 18px;&quot;&gt;describeChips()&lt;/span&gt;" style="text;html=1;strokeColor=none;fillColor=none;align=center;verticalAlign=middle;whiteSpace=wrap;rounded=0;fontFamily=Georgia;fontColor=#000000;rotation=0;" parent="1" vertex="1">
          <mxGeometry x="317" y="-518" width="133" height="30" as="geometry" />
        </mxCell>
        <mxCell id="7vqI0_H_4FVKDy7AsIO3-109" style="edgeStyle=orthogonalEdgeStyle;rounded=0;orthogonalLoop=1;jettySize=auto;html=1;exitX=1;exitY=0.5;exitDx=0;exitDy=0;entryX=0;entryY=0;entryDx=0;entryDy=0;fontColor=#000000;strokeWidth=2;strokeColor=#BF6A4B;" parent="1" source="7vqI0_H_4FVKDy7AsIO3-70" target="7vqI0_H_4FVKDy7AsIO3-28" edge="1">
          <mxGeometry relative="1" as="geometry">
            <Array as="points">
              <mxPoint x="556" y="-634" />
            </Array>
          </mxGeometry>
        </mxCell>
        <mxCell id="7vqI0_H_4FVKDy7AsIO3-70" value="&lt;span style=&quot;font-size: 18px;&quot;&gt;defineUNet()&lt;/span&gt;" style="text;html=1;strokeColor=none;fillColor=none;align=center;verticalAlign=middle;whiteSpace=wrap;rounded=0;fontFamily=Georgia;fontColor=#000000;rotation=0;" parent="1" vertex="1">
          <mxGeometry x="432" y="-647" width="108" height="25" as="geometry" />
        </mxCell>
        <mxCell id="7vqI0_H_4FVKDy7AsIO3-71" value="&lt;span style=&quot;font-size: 18px;&quot;&gt;viewBatchPreds()&lt;/span&gt;" style="text;html=1;strokeColor=none;fillColor=none;align=center;verticalAlign=middle;whiteSpace=wrap;rounded=0;fontFamily=Georgia;fontColor=#000000;rotation=0;" parent="1" vertex="1">
          <mxGeometry x="151.1" y="-104" width="146.75" height="30" as="geometry" />
        </mxCell>
        <mxCell id="7vqI0_H_4FVKDy7AsIO3-144" value="" style="edgeStyle=orthogonalEdgeStyle;rounded=0;orthogonalLoop=1;jettySize=auto;html=1;" parent="1" source="7vqI0_H_4FVKDy7AsIO3-72" target="7vqI0_H_4FVKDy7AsIO3-128" edge="1">
          <mxGeometry relative="1" as="geometry" />
        </mxCell>
        <mxCell id="7vqI0_H_4FVKDy7AsIO3-145" value="" style="edgeStyle=orthogonalEdgeStyle;rounded=0;orthogonalLoop=1;jettySize=auto;html=1;strokeColor=#BF6A4B;strokeWidth=2;" parent="1" source="7vqI0_H_4FVKDy7AsIO3-72" target="7vqI0_H_4FVKDy7AsIO3-128" edge="1">
          <mxGeometry relative="1" as="geometry" />
        </mxCell>
        <mxCell id="7vqI0_H_4FVKDy7AsIO3-72" value="&lt;span style=&quot;font-size: 18px;&quot;&gt;predictSpatial()&lt;/span&gt;" style="text;html=1;strokeColor=none;fillColor=none;align=center;verticalAlign=middle;whiteSpace=wrap;rounded=0;fontFamily=Georgia;fontColor=#000000;rotation=0;" parent="1" vertex="1">
          <mxGeometry x="381" y="-170" width="134" height="30" as="geometry" />
        </mxCell>
        <mxCell id="7vqI0_H_4FVKDy7AsIO3-73" value="&lt;span style=&quot;font-size: 18px;&quot;&gt;assessRaster()&lt;/span&gt;" style="text;html=1;strokeColor=none;fillColor=none;align=center;verticalAlign=middle;whiteSpace=wrap;rounded=0;fontFamily=Georgia;fontColor=#000000;rotation=0;" parent="1" vertex="1">
          <mxGeometry x="777.9399999999999" y="-109" width="146.75" height="30" as="geometry" />
        </mxCell>
        <mxCell id="7vqI0_H_4FVKDy7AsIO3-74" value="&lt;span style=&quot;font-size: 18px;&quot;&gt;assessPnts()&lt;/span&gt;" style="text;html=1;strokeColor=none;fillColor=none;align=center;verticalAlign=middle;whiteSpace=wrap;rounded=0;fontFamily=Georgia;fontColor=#000000;rotation=0;" parent="1" vertex="1">
          <mxGeometry x="777.9399999999999" y="-142" width="146.75" height="30" as="geometry" />
        </mxCell>
        <mxCell id="7vqI0_H_4FVKDy7AsIO3-75" value="&lt;span style=&quot;font-size: 18px;&quot;&gt;describeBatch()&lt;/span&gt;" style="text;html=1;strokeColor=none;fillColor=none;align=center;verticalAlign=middle;whiteSpace=wrap;rounded=0;fontFamily=Georgia;fontColor=#000000;rotation=0;" parent="1" vertex="1">
          <mxGeometry x="22.75" y="-327" width="131" height="30" as="geometry" />
        </mxCell>
        <mxCell id="7vqI0_H_4FVKDy7AsIO3-76" value="" style="verticalLabelPosition=bottom;verticalAlign=top;html=1;shape=mxgraph.basic.tick;fillColor=#5BA691;" parent="1" vertex="1">
          <mxGeometry x="11" y="-352" width="31" height="36.47" as="geometry" />
        </mxCell>
        <mxCell id="dUYQVI0KteBL-w4bd4aB-13" style="edgeStyle=orthogonalEdgeStyle;rounded=0;orthogonalLoop=1;jettySize=auto;html=1;exitX=0;exitY=0.5;exitDx=0;exitDy=0;entryX=1;entryY=0.5;entryDx=0;entryDy=0;strokeWidth=2;strokeColor=#BF6A4B;" parent="1" source="7vqI0_H_4FVKDy7AsIO3-77" target="7vqI0_H_4FVKDy7AsIO3-28" edge="1">
          <mxGeometry relative="1" as="geometry" />
        </mxCell>
        <mxCell id="7vqI0_H_4FVKDy7AsIO3-77" value="Assessment metrics" style="swimlane;whiteSpace=wrap;html=1;fontColor=#000000;strokeColor=#D9B384;fillColor=#D9B384;strokeWidth=2;" parent="1" vertex="1">
          <mxGeometry x="782.75" y="-496.5" width="155" height="110" as="geometry" />
        </mxCell>
        <mxCell id="7vqI0_H_4FVKDy7AsIO3-78" value="luz_metric_recall()" style="text;html=1;align=center;verticalAlign=middle;resizable=0;points=[];autosize=1;strokeColor=none;fillColor=none;fontColor=#000000;" parent="7vqI0_H_4FVKDy7AsIO3-77" vertex="1">
          <mxGeometry x="-5" y="23" width="116" height="26" as="geometry" />
        </mxCell>
        <mxCell id="7vqI0_H_4FVKDy7AsIO3-79" value="luz_metric_precision()" style="text;html=1;align=center;verticalAlign=middle;resizable=0;points=[];autosize=1;strokeColor=none;fillColor=none;fontColor=#000000;" parent="7vqI0_H_4FVKDy7AsIO3-77" vertex="1">
          <mxGeometry x="-5" y="43" width="135" height="26" as="geometry" />
        </mxCell>
        <mxCell id="7vqI0_H_4FVKDy7AsIO3-80" value="luz_metric_f1score()" style="text;html=1;align=center;verticalAlign=middle;resizable=0;points=[];autosize=1;strokeColor=none;fillColor=none;fontColor=#000000;" parent="7vqI0_H_4FVKDy7AsIO3-77" vertex="1">
          <mxGeometry x="-5" y="64" width="127" height="26" as="geometry" />
        </mxCell>
        <mxCell id="7vqI0_H_4FVKDy7AsIO3-82" value="luz::luz_metric_accuracy()" style="text;html=1;align=center;verticalAlign=middle;resizable=0;points=[];autosize=1;strokeColor=none;fillColor=none;fontColor=#000000;" parent="7vqI0_H_4FVKDy7AsIO3-77" vertex="1">
          <mxGeometry x="-5" y="84" width="157" height="26" as="geometry" />
        </mxCell>
        <mxCell id="7vqI0_H_4FVKDy7AsIO3-127" style="edgeStyle=orthogonalEdgeStyle;rounded=0;orthogonalLoop=1;jettySize=auto;html=1;exitX=0;exitY=0.5;exitDx=0;exitDy=0;exitPerimeter=0;entryX=1;entryY=0.5;entryDx=0;entryDy=0;strokeColor=#BF6A4B;strokeWidth=2;" parent="1" source="7vqI0_H_4FVKDy7AsIO3-83" target="7vqI0_H_4FVKDy7AsIO3-72" edge="1">
          <mxGeometry relative="1" as="geometry" />
        </mxCell>
        <mxCell id="7vqI0_H_4FVKDy7AsIO3-142" style="edgeStyle=orthogonalEdgeStyle;rounded=0;orthogonalLoop=1;jettySize=auto;html=1;exitX=1;exitY=0.5;exitDx=0;exitDy=0;exitPerimeter=0;strokeColor=#BF6A4B;strokeWidth=2;entryX=0.1;entryY=0.5;entryDx=0;entryDy=0;entryPerimeter=0;" parent="1" source="7vqI0_H_4FVKDy7AsIO3-83" target="7vqI0_H_4FVKDy7AsIO3-131" edge="1">
          <mxGeometry relative="1" as="geometry">
            <mxPoint x="768.666748046875" y="-155" as="targetPoint" />
            <Array as="points">
              <mxPoint x="731" y="-56" />
              <mxPoint x="731" y="-107" />
              <mxPoint x="769" y="-107" />
            </Array>
          </mxGeometry>
        </mxCell>
        <mxCell id="7vqI0_H_4FVKDy7AsIO3-83" value="" style="shape=cylinder3;whiteSpace=wrap;html=1;boundedLbl=1;backgroundOutline=1;size=15;fillColor=#808080;" parent="1" vertex="1">
          <mxGeometry x="605" y="-96" width="60" height="80" as="geometry" />
        </mxCell>
        <mxCell id="7vqI0_H_4FVKDy7AsIO3-84" value="" style="verticalLabelPosition=bottom;verticalAlign=top;html=1;shape=mxgraph.basic.tick;fillColor=#5BA691;" parent="1" vertex="1">
          <mxGeometry x="14" y="-545" width="31" height="36.47" as="geometry" />
        </mxCell>
        <mxCell id="7vqI0_H_4FVKDy7AsIO3-97" style="edgeStyle=orthogonalEdgeStyle;rounded=0;orthogonalLoop=1;jettySize=auto;html=1;exitX=0.25;exitY=0;exitDx=0;exitDy=0;entryX=1;entryY=0.5;entryDx=0;entryDy=0;fontColor=#000000;strokeWidth=2;strokeColor=#BF6A4B;" parent="1" source="7vqI0_H_4FVKDy7AsIO3-85" target="7vqI0_H_4FVKDy7AsIO3-75" edge="1">
          <mxGeometry relative="1" as="geometry" />
        </mxCell>
        <mxCell id="7vqI0_H_4FVKDy7AsIO3-98" style="edgeStyle=orthogonalEdgeStyle;rounded=0;orthogonalLoop=1;jettySize=auto;html=1;exitX=0;exitY=0.5;exitDx=0;exitDy=0;entryX=1;entryY=0.5;entryDx=0;entryDy=0;fontColor=#000000;strokeWidth=2;strokeColor=#BF6A4B;" parent="1" source="7vqI0_H_4FVKDy7AsIO3-85" target="7vqI0_H_4FVKDy7AsIO3-68" edge="1">
          <mxGeometry relative="1" as="geometry">
            <Array as="points">
              <mxPoint x="135" y="-259" />
              <mxPoint x="135" y="-188" />
            </Array>
          </mxGeometry>
        </mxCell>
        <mxCell id="7vqI0_H_4FVKDy7AsIO3-113" style="edgeStyle=orthogonalEdgeStyle;rounded=0;orthogonalLoop=1;jettySize=auto;html=1;exitX=1;exitY=0.5;exitDx=0;exitDy=0;entryX=0;entryY=0.5;entryDx=0;entryDy=0;fontColor=#000000;strokeWidth=2;strokeColor=#BF6A4B;" parent="1" source="7vqI0_H_4FVKDy7AsIO3-85" target="7vqI0_H_4FVKDy7AsIO3-28" edge="1">
          <mxGeometry relative="1" as="geometry">
            <Array as="points">
              <mxPoint x="345" y="-259" />
              <mxPoint x="345" y="-323" />
              <mxPoint x="445" y="-323" />
              <mxPoint x="445" y="-459" />
            </Array>
          </mxGeometry>
        </mxCell>
        <mxCell id="7vqI0_H_4FVKDy7AsIO3-85" value="&lt;span style=&quot;font-size: 18px;&quot;&gt;torch::dataloader()&lt;/span&gt;" style="text;html=1;strokeColor=none;fillColor=none;align=center;verticalAlign=middle;whiteSpace=wrap;rounded=0;fontFamily=Georgia;fontColor=#000000;rotation=0;" parent="1" vertex="1">
          <mxGeometry x="153.1" y="-274" width="158.5" height="30" as="geometry" />
        </mxCell>
        <mxCell id="7vqI0_H_4FVKDy7AsIO3-86" value="" style="verticalLabelPosition=bottom;verticalAlign=top;html=1;shape=mxgraph.basic.tick;fillColor=#5BA691;" parent="1" vertex="1">
          <mxGeometry x="8" y="-234" width="31" height="36.47" as="geometry" />
        </mxCell>
        <mxCell id="7vqI0_H_4FVKDy7AsIO3-123" style="edgeStyle=orthogonalEdgeStyle;rounded=0;orthogonalLoop=1;jettySize=auto;html=1;exitX=0;exitY=0.5;exitDx=0;exitDy=0;entryX=1;entryY=0.5;entryDx=0;entryDy=0;strokeColor=#BF6A4B;strokeWidth=2;" parent="1" source="7vqI0_H_4FVKDy7AsIO3-116" target="7vqI0_H_4FVKDy7AsIO3-71" edge="1">
          <mxGeometry relative="1" as="geometry">
            <Array as="points">
              <mxPoint x="368" y="-274" />
              <mxPoint x="368" y="-89" />
            </Array>
          </mxGeometry>
        </mxCell>
        <mxCell id="7vqI0_H_4FVKDy7AsIO3-136" style="edgeStyle=orthogonalEdgeStyle;rounded=0;orthogonalLoop=1;jettySize=auto;html=1;exitX=1;exitY=0.5;exitDx=0;exitDy=0;strokeColor=#BF6A4B;strokeWidth=2;entryX=0.418;entryY=0.046;entryDx=0;entryDy=0;entryPerimeter=0;" parent="1" source="7vqI0_H_4FVKDy7AsIO3-116" target="7vqI0_H_4FVKDy7AsIO3-74" edge="1">
          <mxGeometry relative="1" as="geometry">
            <mxPoint x="839" y="-150" as="targetPoint" />
          </mxGeometry>
        </mxCell>
        <mxCell id="7vqI0_H_4FVKDy7AsIO3-148" style="edgeStyle=orthogonalEdgeStyle;rounded=0;orthogonalLoop=1;jettySize=auto;html=1;exitX=0.5;exitY=1;exitDx=0;exitDy=0;entryX=0.5;entryY=0;entryDx=0;entryDy=0;strokeWidth=2;strokeColor=#BF6A4B;" parent="1" source="7vqI0_H_4FVKDy7AsIO3-116" target="7vqI0_H_4FVKDy7AsIO3-72" edge="1">
          <mxGeometry relative="1" as="geometry" />
        </mxCell>
        <mxCell id="7vqI0_H_4FVKDy7AsIO3-116" value="" style="rhombus;whiteSpace=wrap;html=1;fillColor=#401D36;" parent="1" vertex="1">
          <mxGeometry x="564.5" y="-314" width="80" height="80" as="geometry" />
        </mxCell>
        <mxCell id="7vqI0_H_4FVKDy7AsIO3-124" style="edgeStyle=orthogonalEdgeStyle;rounded=0;orthogonalLoop=1;jettySize=auto;html=1;exitX=0.5;exitY=1;exitDx=0;exitDy=0;entryX=0.551;entryY=0.033;entryDx=0;entryDy=0;entryPerimeter=0;strokeColor=#BF6A4B;strokeWidth=2;" parent="1" source="7vqI0_H_4FVKDy7AsIO3-85" target="7vqI0_H_4FVKDy7AsIO3-71" edge="1">
          <mxGeometry relative="1" as="geometry" />
        </mxCell>
        <mxCell id="7vqI0_H_4FVKDy7AsIO3-125" value="" style="verticalLabelPosition=bottom;verticalAlign=top;html=1;shape=mxgraph.basic.tick;fillColor=#5BA691;" parent="1" vertex="1">
          <mxGeometry x="145" y="-132" width="31" height="36.47" as="geometry" />
        </mxCell>
        <mxCell id="7vqI0_H_4FVKDy7AsIO3-128" value="" style="rhombus;whiteSpace=wrap;html=1;fillColor=#401D36;" parent="1" vertex="1">
          <mxGeometry x="407.9999999999999" y="-104" width="80" height="80" as="geometry" />
        </mxCell>
        <mxCell id="7vqI0_H_4FVKDy7AsIO3-131" value="" style="shape=curlyBracket;whiteSpace=wrap;html=1;rounded=1;labelPosition=left;verticalLabelPosition=middle;align=right;verticalAlign=middle;size=0.5;fillColor=#401D36;strokeColor=#401D36;strokeWidth=2;" parent="1" vertex="1">
          <mxGeometry x="771.5" y="-141" width="20" height="67" as="geometry" />
        </mxCell>
        <mxCell id="7vqI0_H_4FVKDy7AsIO3-132" value="" style="shape=curlyBracket;whiteSpace=wrap;html=1;rounded=1;labelPosition=left;verticalLabelPosition=middle;align=right;verticalAlign=middle;size=0.5;rotation=-180;fillColor=#401D36;strokeColor=#401D36;strokeWidth=2;" parent="1" vertex="1">
          <mxGeometry x="911.13" y="-142" width="20" height="71" as="geometry" />
        </mxCell>
        <mxCell id="7vqI0_H_4FVKDy7AsIO3-133" value="&lt;span style=&quot;font-size: 18px;&quot;&gt;New&lt;br&gt;data&lt;br&gt;&lt;/span&gt;" style="text;html=1;strokeColor=none;fillColor=none;align=center;verticalAlign=middle;whiteSpace=wrap;rounded=0;fontFamily=Georgia;fontColor=#000000;rotation=0;" parent="1" vertex="1">
          <mxGeometry x="633" y="-37.999999999999986" width="111.63" height="30" as="geometry" />
        </mxCell>
        <mxCell id="7vqI0_H_4FVKDy7AsIO3-134" value="&lt;span style=&quot;font-size: 18px;&quot;&gt;Model assessment&lt;br&gt;&lt;/span&gt;" style="text;html=1;strokeColor=none;fillColor=none;align=center;verticalAlign=middle;whiteSpace=wrap;rounded=0;fontFamily=Georgia;fontColor=#000000;rotation=0;" parent="1" vertex="1">
          <mxGeometry x="813.0600000000001" y="-46" width="111.63" height="30" as="geometry" />
        </mxCell>
        <mxCell id="7vqI0_H_4FVKDy7AsIO3-138" value="&lt;span style=&quot;font-size: 18px;&quot;&gt;Trained model&lt;br&gt;&lt;/span&gt;" style="text;html=1;strokeColor=none;fillColor=none;align=center;verticalAlign=middle;whiteSpace=wrap;rounded=0;fontFamily=Georgia;fontColor=#000000;rotation=0;" parent="1" vertex="1">
          <mxGeometry x="620.6800000000001" y="-327" width="111.63" height="30" as="geometry" />
        </mxCell>
        <mxCell id="7vqI0_H_4FVKDy7AsIO3-149" value="" style="verticalLabelPosition=bottom;verticalAlign=top;html=1;shape=mxgraph.basic.tick;fillColor=#5BA691;" parent="1" vertex="1">
          <mxGeometry x="902" y="-71" width="31" height="36.47" as="geometry" />
        </mxCell>
        <mxCell id="7vqI0_H_4FVKDy7AsIO3-152" style="edgeStyle=orthogonalEdgeStyle;rounded=0;orthogonalLoop=1;jettySize=auto;html=1;exitX=0.5;exitY=1;exitDx=0;exitDy=0;entryX=0.971;entryY=0.291;entryDx=0;entryDy=0;entryPerimeter=0;strokeWidth=2;strokeColor=#BF6A4B;" parent="1" source="7vqI0_H_4FVKDy7AsIO3-53" target="7vqI0_H_4FVKDy7AsIO3-28" edge="1">
          <mxGeometry relative="1" as="geometry">
            <Array as="points">
              <mxPoint x="831" y="-521" />
              <mxPoint x="740" y="-521" />
            </Array>
          </mxGeometry>
        </mxCell>
        <mxCell id="7vqI0_H_4FVKDy7AsIO3-154" style="edgeStyle=orthogonalEdgeStyle;rounded=0;orthogonalLoop=1;jettySize=auto;html=1;exitX=0.5;exitY=1;exitDx=0;exitDy=0;entryX=0.782;entryY=0.064;entryDx=0;entryDy=0;entryPerimeter=0;strokeWidth=2;strokeColor=#BF6A4B;" parent="1" source="7vqI0_H_4FVKDy7AsIO3-41" target="7vqI0_H_4FVKDy7AsIO3-28" edge="1">
          <mxGeometry relative="1" as="geometry">
            <Array as="points">
              <mxPoint x="843" y="-757" />
              <mxPoint x="843" y="-692" />
              <mxPoint x="707" y="-692" />
            </Array>
          </mxGeometry>
        </mxCell>
        <mxCell id="7vqI0_H_4FVKDy7AsIO3-155" value="&lt;span style=&quot;font-size: 18px;&quot;&gt;Spatial predictions&lt;br&gt;&lt;/span&gt;" style="text;html=1;strokeColor=none;fillColor=none;align=center;verticalAlign=middle;whiteSpace=wrap;rounded=0;fontFamily=Georgia;fontColor=#000000;rotation=0;" parent="1" vertex="1">
          <mxGeometry x="334.56" y="-46" width="111.63" height="30" as="geometry" />
        </mxCell>
        <mxCell id="DMx1V3XVmTx-wOQY8tZE-3" style="edgeStyle=orthogonalEdgeStyle;rounded=0;orthogonalLoop=1;jettySize=auto;html=1;exitX=1;exitY=0.5;exitDx=0;exitDy=0;strokeColor=#000000;" edge="1" parent="1">
          <mxGeometry relative="1" as="geometry">
            <mxPoint x="650.75" y="1366.58" as="sourcePoint" />
            <mxPoint x="713.25" y="1366.58" as="targetPoint" />
          </mxGeometry>
        </mxCell>
        <mxCell id="DMx1V3XVmTx-wOQY8tZE-4" value="Pass data to next operation without changing arrray size" style="text;html=1;strokeColor=none;fillColor=none;align=left;verticalAlign=middle;whiteSpace=wrap;rounded=0;fontFamily=Georgia;fontColor=#000000;rotation=0;" vertex="1" parent="1">
          <mxGeometry x="719.75" y="1352.5" width="131" height="30" as="geometry" />
        </mxCell>
      </root>
    </mxGraphModel>
  </diagram>
</mxfile>
